<?xml version="1.0" standalone="no"?>
<!DOCTYPE svg PUBLIC "-//W3C//DTD SVG 1.1//EN" "http://www.w3.org/Graphics/SVG/1.1/DTD/svg11.dtd" >
<!--
2013-9-30: Created.
-->
<svg>
<metadata>
Created by iconfont
</metadata>
<defs>

<font id="iconfont" horiz-adv-x="1024" >
  <font-face
    font-family="iconfont"
    font-weight="500"
    font-stretch="normal"
    units-per-em="1024"
    ascent="896"
    descent="-128"
  />
    <missing-glyph />
    
    <glyph glyph-name="twitter" unicode="&#60572;" d="M962.267429 662.820571q-38.253714-56.027429-92.598857-95.451429 0.585143-7.972571 0.585143-23.990857 0-74.313143-21.723429-148.260571t-65.974857-141.970286-105.398857-120.32-147.456-83.456-184.539429-31.158857q-154.843429 0-283.428571 82.870857 19.968-2.267429 44.544-2.267429 128.585143 0 229.156571 78.848-59.977143 1.170286-107.446857 36.864t-65.170286 91.136q18.870857-2.852571 34.889143-2.852571 24.576 0 48.566857 6.290286-64 13.165714-105.984 63.707429t-41.984 117.394286l0 2.267429q38.838857-21.723429 83.456-23.405714-37.741714 25.161143-59.977143 65.682286t-22.308571 87.990857q0 50.322286 25.161143 93.110857 69.12-85.138286 168.301714-136.265143t212.260571-56.832q-4.534857 21.723429-4.534857 42.276571 0 76.580571 53.979429 130.56t130.56 53.979429q80.018286 0 134.875429-58.294857 62.317714 11.995429 117.174857 44.544-21.138286-65.682286-81.115429-101.741714 53.174857 5.705143 106.276571 28.598857z"  horiz-adv-x="1024" />

    
    <glyph glyph-name="arrow-down" unicode="&#58896;" d="M512.197498 143.76147400000002L158.499897 497.459075c-18.73776 18.73776-18.73776 49.092092 0 67.828828s49.092092 18.73776 67.828828 0l285.868773-285.868773 285.868773 285.868773c18.73776 18.73776 49.092092 18.73776 67.828828 0s18.73776-49.092092 0-67.828828L512.197498 143.76147400000002z"  horiz-adv-x="1024" />

    
    <glyph glyph-name="write" unicode="&#58969;" d="M893.20386165 809.39773921L595.63488415 511.71574852c-11.74106203-11.69511037-11.74106203-30.5908431 0-42.33190514 5.87053041-5.80222612 13.48346766-8.76046655 21.23550022-8.76046654 7.56822835 0 15.27306771 2.88869339 21.14359813 8.76046654l297.52302583 297.65963685c11.78701247 11.69511037 11.78701247 30.59208587 0 42.35550174-5.82457996 5.87053041-13.43875876 8.76046655-21.14359811 8.76046655C906.73452252 818.15820576 899.02968317 815.26827083 893.20386165 809.39773921M666.26629966 441.1526373c-12.93454177-13.00284726-30.95969185-20.47793198-49.3959165-20.47793197-18.57531873 0-36.04905862 7.2229762-49.30401439 20.29537052-13.39156677 13.41516337-20.68409003 30.98080415-20.68409003 49.6716216 0 18.64362425 7.33723216 36.18691118 20.59218793 49.37231989l201.80369044 201.94030145c-2.84398448 0.22975466-5.64077697 0.84822759-8.57666355 0.84822759L652.68968835 742.80254638c-1.46794329 0.22975466-2.79803404 0.87182419-4.31192777 0.8718242L229.04028699 743.67437058c-49.58096103 0-89.89599698-40.24548891-89.895997-89.80285335l0-598.96677686c0-49.57971949 40.31503596-89.80285334 89.895997-89.80285334l539.09034325 0c32.88466015 0 61.45739252 17.97919964 77.09682347 44.48786963 11.00957347 15.96108769 17.43027253 35.31632852 17.43027253 56.09232066L862.65772624 637.61361215 666.26629966 441.1526373zM282.8387906 518.93872472l179.69636723 0c16.46530591 0 29.94877357-13.37045447 29.94877357-29.85811422 0-16.60315845-13.48346766-29.97237017-29.94877357-29.97237015L282.8387906 459.10824035c-16.41935425 0-29.90406466 13.36921171-29.90406466 29.97237015C252.93596748 505.56951301 266.41943635 518.93872472 282.8387906 518.93872472zM642.32342596 261.52333402l-359.48463536 0c-16.41935425 0-29.90406466 13.30090621-29.90406466 29.95001512 0 16.55720679 13.48346766 29.94877357 29.90406466 29.94877356l359.48463536 0c16.420597 0 29.90406466-13.39156677 29.90406466-29.94877356C672.22749062 274.82424146000005 658.74402297 261.52333402 642.32342596 261.52333402z"  horiz-adv-x="1024" />

    
    <glyph glyph-name="locationicon" unicode="&#58937;" d="M578.782609-105.73913 1024 873.73913 22.26087 428.521739 578.782609 428.521739 578.782609-105.73913Z"  horiz-adv-x="1047" />

    
    <glyph glyph-name="search" unicode="&#58970;" d="M416 704C537.6 704 640 601.6 640 480S537.6 256 416 256 192 358.4 192 480 294.4 704 416 704M416 768C256 768 128 640 128 480S256 192 416 192 704 320 704 480 576 768 416 768L416 768zM832 32c-6.4 0-19.2 0-25.6 6.4l-192 192c-12.8 12.8-12.8 32 0 44.8s32 12.8 44.8 0l192-192c12.8-12.8 12.8-32 0-44.8C851.2 32 838.4 32 832 32z"  horiz-adv-x="1024" />

    
    <glyph glyph-name="telegram" unicode="&#60153;" d="M417.28 100.266667 429.226667 280.746667 756.906667 576C771.413333 589.226667 753.92 595.626667 734.72 584.106667L330.24 328.533333 155.306667 384C117.76 394.666667 117.333333 420.693333 163.84 439.466667L845.226667 702.293333C876.373333 716.373333 906.24 694.613333 894.293333 646.826667L778.24 100.266667C770.133333 61.44 746.666667 52.053333 714.24 69.973333L537.6 200.533333 452.693333 118.186667C442.88 108.373333 434.773333 100.266667 417.28 100.266667Z"  horiz-adv-x="1024" />

    
    <glyph glyph-name="icon-question" unicode="&#58987;" d="M511.337 832.435c-247.341 0-447.848-200.509-447.848-447.848 0-247.339 200.509-447.848 447.848-447.848 247.338 0 447.847 200.509 447.847 447.848 0.001 247.339-200.508 447.848-447.847 447.848zM511.337 1.064c-211.814 0-383.522 171.71-383.522 383.523 0 211.814 171.707 383.522 383.522 383.522 211.812 0 383.522-171.708 383.522-383.522 0-211.813-171.71-383.523-383.522-383.523zM501.963 625.479c-65.918-2.162-135.077-34.58-157.769-135.075 54.030-7.565 79.965-10.807 79.965-10.807s14.049 86.45 100.497 76.723c86.449-9.727 66.999-74.563 58.352-87.531-8.644-21.613-88.609-73.483-101.577-104.819-12.967-31.338-11.887-89.692-11.887-89.692h77.805c0 0-4.323 61.596 38.902 87.531 43.224 25.935 116.706 101.578 84.289 173.979-51.87 83.207-102.659 91.852-168.576 89.691zM468.464 245.103h81.046v-88.599h-81.046v88.599z"  horiz-adv-x="1024" />

    
    <glyph glyph-name="weixin" unicode="&#58986;" d="M720.29989 551.09151c3.38699 0 6.209482 0 9.596472 0C697.719956 692.780595 548.127894 800.035281 368.052922 800.035281 164.833517 800.035281 0 663.426681 0 495.206174c0-99.351709 57.014333-187.413451 145.640573-242.734289l-36.692393-111.770673 131.528115 68.868798c39.514884-12.418964 82.981257-18.628445 127.576626-18.628445 9.596472 0 19.192944 0.564498 28.224917 1.128997-7.902977 24.273429-12.418964 50.240353-12.418964 76.207277C383.858875 424.079383 534.579934 551.09151 720.29989 551.09151zM493.936053 650.443219c26.531422 0 47.982359-22.015436 47.982359-48.546858 0-27.095921-21.450937-48.546858-47.982359-48.546858S445.953693 574.800441 445.953693 601.896362C445.953693 628.427784 467.404631 650.443219 493.936053 650.443219zM239.911797 553.349504c-26.531422 0-47.982359 22.015436-47.982359 48.546858 0 27.095921 21.450937 48.546858 47.982359 48.546858s47.982359-22.015436 47.982359-48.546858C287.894157 574.800441 266.443219 553.349504 239.911797 553.349504zM1024 267.713341c0 141.689085-136.044101 256.846748-304.264609 256.846748-167.656009 0-304.264609-115.157663-304.264609-256.846748s136.044101-256.846748 304.264609-256.846748c35.563396 0 69.997795 5.080485 102.174201 14.676957l102.174201-57.578831-27.660419 90.319735C973.759647 105.137817 1024 181.345094 1024 267.713341zM620.948181 310.615215c-22.015436 0-40.079383 16.370452-40.079383 36.127894 0 19.757442 18.063947 36.127894 40.079383 36.127894s40.079383-16.370452 40.079383-36.127894C661.027563 326.421169 642.963616 310.615215 620.948181 310.615215zM820.216097 310.615215c-22.015436 0-40.079383 16.370452-40.079383 36.127894 0 19.757442 18.063947 36.127894 40.079383 36.127894s40.079383-16.370452 40.079383-36.127894C860.29548 326.421169 842.231533 310.615215 820.216097 310.615215z"  horiz-adv-x="1024" />

    
    <glyph glyph-name="arrow-up" unicode="&#58897;" d="M142.23215564 222.60808008000004c0 12.59539783 4.84490231 24.32569482 13.64852719 33.09643569L477.55152826 576.8045288999999c1.14840884 1.17454778 2.12396594 2.09192569 3.16950732 2.84235397l2.3929401 1.89883796c9.40649744 9.36180918 20.47489893 13.9621896 32.19170498 13.9621896 11.92760019 0 23.08032065-4.70324872 31.40249058-13.23031146l319.88077707-323.30829721c8.624871-8.74544568 13.37871011-20.42346561 13.37871011-32.87130689 0-12.17212207-4.61387219-23.66970227-12.98073037-32.37130261-8.39299714-8.64932327-20.09715518-13.6282912-32.09558259-13.6282912-11.85087168 0-23.0794769 4.71589673-31.61328469 13.30113786L514.74834012 485.06166742 218.58785571 189.67859398999997c-8.49502167-8.44443127-19.59546424-13.10889304-31.30552523-13.10889304-12.26824447 0-23.77931479 4.98571381-32.41008875 14.00687871C146.72376648 199.16181995 142.23215564 210.55821852999998 142.23215564 222.60808008000004z"  horiz-adv-x="1024" />

    
    <glyph glyph-name="weibo" unicode="&#58919;" d="M916.48 377.856q27.648-21.504 38.912-51.712t9.216-62.976-14.336-65.536-31.744-59.392q-34.816-48.128-78.848-81.92t-91.136-56.32-94.72-35.328-89.6-18.944-75.264-7.68-51.712-1.536-49.152 2.56-68.096 10.24-78.336 21.504-79.872 36.352-74.24 55.296-59.904 78.848q-16.384 29.696-22.016 63.488t-5.632 86.016q0 22.528 7.68 51.2t27.136 63.488 53.248 75.776 86.016 90.112q51.2 48.128 105.984 85.504t117.248 57.856q28.672 10.24 63.488 11.264t57.344-11.264q10.24-11.264 19.456-23.04t12.288-29.184q3.072-14.336 0.512-27.648t-5.632-26.624-5.12-25.6 2.048-22.528q17.408-2.048 33.792 1.536t31.744 9.216 31.232 11.776 33.28 9.216q27.648 5.12 54.784 4.608t49.152-7.68 36.352-22.016 17.408-38.4q2.048-14.336-2.048-26.624t-8.704-23.04-7.168-22.016 1.536-23.552q3.072-7.168 14.848-13.312t27.136-12.288 32.256-13.312 29.184-16.384zM658.432 59.39200000000005q26.624 16.384 53.76 45.056t44.032 64 18.944 75.776-20.48 81.408q-19.456 33.792-47.616 57.344t-62.976 37.376-74.24 19.968-80.384 6.144q-78.848 0-139.776-16.384t-105.472-43.008-72.192-60.416-38.912-68.608q-11.264-33.792-6.656-67.072t20.992-62.976 42.496-53.248 57.856-37.888q58.368-25.6 119.296-32.256t116.224-0.512 100.864 21.504 74.24 33.792zM524.288 382.976q20.48-8.192 38.912-18.432t32.768-27.648q10.24-12.288 17.92-30.72t10.752-39.424 1.536-42.496-9.728-38.912q-8.192-18.432-19.968-37.376t-28.672-35.328-40.448-29.184-57.344-18.944q-61.44-11.264-117.76 11.264t-88.064 74.752q-12.288 39.936-13.312 70.656t16.384 66.56q13.312 27.648 40.448 51.712t62.464 38.912 75.264 17.408 78.848-12.8zM361.472 131.072q37.888-3.072 57.856 18.432t21.504 48.128-15.36 47.616-52.736 16.896q-27.648-3.072-43.008-23.552t-17.408-43.52 9.728-42.496 39.424-21.504zM780.288 889.856q74.752 0 139.776-19.968t113.664-57.856 76.288-92.16 27.648-122.88q0-33.792-16.384-50.688t-35.328-17.408-35.328 14.336-16.384 45.568q0 40.96-22.528 77.824t-59.392 64.512-84.48 43.52-96.768 15.872q-31.744 0-47.104 15.36t-14.336 34.304 18.944 34.304 51.712 15.36zM780.288 726.016q95.232 0 144.384-48.64t49.152-146.944q0-30.72-10.24-43.52t-22.528-11.264-22.528 14.848-10.24 35.84q0 60.416-34.816 96.256t-93.184 35.84q-19.456 0-28.672 10.752t-9.216 23.04 9.728 23.04 28.16 10.752z"  horiz-adv-x="1141" />

    
    <glyph glyph-name="reddit-round" unicode="&#59113;" d="M625.714286 229.14285700000005q9.142857-9.142857 0-17.714286-35.428571-35.428571-113.714286-35.428571t-113.714286 35.428571q-9.142857 8.571429 0 17.714286 3.428571 3.428571 8.571429 3.428572t8.571428-3.428572q27.428571-28 96.571429-28 68.571429 0 96.571429 28 3.428571 3.428571 8.571428 3.428572t8.571429-3.428572zM450.285714 332.57142899999997q0-21.142857-14.857143-36t-36-14.857143-36.285714 14.857143-15.142857 36q0 21.714286 15.142857 36.571428t36.285714 14.857143 36-15.142857 14.857143-36.285714z m225.714286 0q0-21.142857-15.142857-36t-36.285714-14.857143-36 14.857143-14.857143 36 14.857143 36.285714 36 15.142857 36.285714-14.857143 15.142857-36.571428z m143.428571 68.571428q0 28-20 48t-48.571428 20-49.142857-20.571428q-74.285714 51.428571-177.714286 54.857142l36 161.714286 114.285714-25.714286q0-21.142857 14.857143-36t36-14.857142 36.285714 15.142857T776.571429 640t-15.142858 36.285714T725.142857 691.428571q-30.857143 0-45.714286-28.571428l-126.285714 28q-10.857143 2.857143-14.285714-9.142857l-39.428572-178.285715q-102.857143-4-176.571428-55.428571-20 21.142857-49.714286 21.142857-28.571429 0-48.571428-20t-20-48q0-20 10.571428-36.571428t28.285714-25.142858q-3.428571-15.428571-3.428571-32 0-81.142857 80-138.857142t192.571429-57.714286q113.142857 0 193.142857 57.714286t80 138.857142q0 18.285714-4 32.571429 17.142857 8.571429 27.428571 24.857143t10.285714 36.285714z m204.571429-17.142857q0-104-40.571429-198.857143t-109.142857-163.428571-163.428571-109.142857-198.857143-40.571429-198.857143 40.571429-163.428571 109.142857-109.142857 163.428571T0 384t40.571429 198.857143 109.142857 163.428571T313.142857 855.428571 512 896t198.857143-40.571429 163.428571-109.142857 109.142857-163.428571 40.571429-198.857143z"  horiz-adv-x="1024" />

    
    <glyph glyph-name="remove" unicode="&#59069;" d="M898.63543088 328.76636665H125.36456912v110.4672667h773.27086176v-110.4672667z"  horiz-adv-x="1024" />

    
    <glyph glyph-name="medium" unicode="&#59368;" d="M935.68 613.546667l-257.706667-420.266667-184.32 300.373333L640 732.16c7.253333 11.093333 21.333333 15.786667 33.28 12.373333l262.4-130.986666M938.666667 52.053333c0-24.32-21.333333-33.706667-47.36-20.48l-200.96 100.266667L938.666667 537.173333v-485.12m-554.666667-6.826666c0-23.893333-18.346667-34.986667-39.68-23.893334l-235.52 116.906667c-12.8 6.826667-23.466667 23.893333-23.466667 38.4V719.36c0 19.2 14.08 27.306667 31.573334 19.626667L371.2 611.84l12.8-19.626667v-546.986666m268.373333 105.813333L426.666667 264.106667v256l225.706666-369.066667z"  horiz-adv-x="1024" />

    
    <glyph glyph-name="enter" unicode="&#59128;" d="M693.792 397.76l-320 297.664a32 32 0 0 1-43.584-46.848l295.36-274.752-295.84-286.848a31.968 31.968 0 1 1 44.544-45.92l320 310.272a31.968 31.968 0 0 1-0.48 46.4"  horiz-adv-x="1024" />

    
    <glyph glyph-name="return" unicode="&#59168;" d="M694.272 86.976l-295.808 286.848 295.36 274.752a32 32 0 0 1-43.616 46.848l-320-297.696a32 32 0 0 1-0.512-46.4l320-310.304a32.032 32.032 0 0 1 44.576 45.952"  horiz-adv-x="1024" />

    
    <glyph glyph-name="up" unicode="&#58917;" d="M146.8 336c-25.2 25.2-25.3 66-0.1 91.2L466.4 747c25.1 25.1 65.8 25.3 91.2-0.1 25.2-25.2 25.3-66 0.1-91.2L238 335.9c-25.2-25.2-65.8-25.3-91.2 0.1zM877.2 336c-25.2-25.2-66-25.3-91.2-0.1L466.2 655.7c-25.1 25.1-25.3 65.8 0.1 91.2 25.2 25.2 66 25.3 91.2 0.1l319.8-319.8c25.1-25.2 25.3-65.8-0.1-91.2zM512 2.1c-35.7 0-64.6 29.4-64.6 64.3V583.5c0 35.5 28.7 64.3 64.6 64.3 35.7 0 64.6-29.4 64.6-64.3v-517.1c-0.1-35.5-28.7-64.3-64.6-64.3z"  horiz-adv-x="1024" />

    
    <glyph glyph-name="down" unicode="&#58918;" d="M877.2 432c25.2-25.2 25.3-66 0.1-91.2L557.6 21c-25.1-25.1-65.8-25.3-91.2 0.1-25.2 25.2-25.3 66-0.1 91.2L786 432.1c25.2 25.2 65.8 25.3 91.2-0.1zM146.8 432c25.2 25.2 66 25.3 91.2 0.1l319.8-319.8c25.1-25.1 25.3-65.8-0.1-91.2-25.2-25.2-66-25.3-91.2-0.1L146.7 340.8c-25.1 25.2-25.3 65.8 0.1 91.2zM512 765.9c35.7 0 64.6-29.4 64.6-64.3v-517.1c0-35.5-28.7-64.3-64.6-64.3-35.7 0-64.6 29.4-64.6 64.3V701.6c0.1 35.5 28.7 64.3 64.6 64.3z"  horiz-adv-x="1024" />

    
    <glyph glyph-name="close" unicode="&#58935;" d="M884.956 665.98l-654.99-654.996-90.934 90.934 654.99 654.996zM793.979 11.077l-654.997 654.99L229.916 757l654.996-654.99z"  horiz-adv-x="1024" />

    
    <glyph glyph-name="user" unicode="&#58943;" d="M909.084444-42.66666699999996c-15.644444 190.577778-187.050667 341.333333-397.084444 341.333334-210.033778 0-381.44-150.755556-397.084444-341.333334h794.168888zM56.888889-71.11111100000005c0 236.088889 204.231111 426.666667 455.111111 426.666667s455.111111-190.577778 455.111111-426.666667v-28.444445H56.888889V-71.11111100000005zM512 298.66666699999996a284.444444 284.444444 0 1 0 0 568.888889 284.444444 284.444444 0 0 0 0-568.888889z m0 56.888889a227.555556 227.555556 0 1 1 0 455.111111 227.555556 227.555556 0 0 1 0-455.111111z"  horiz-adv-x="1024" />

    
    <glyph glyph-name="lock" unicode="&#58944;" d="M868.772731 512.000452h-32.40655V576.030494C836.366181 752.640169 691.078823 896 511.999504 896S187.632827 752.640169 187.632827 575.9702589999999v-63.969807h-32.40655A64.451689 64.451689 0 0 1 90.352941 447.970409v-511.999397A64.451689 64.451689 0 0 1 155.226277-127.99879499999997h713.546454A64.451689 64.451689 0 0 1 933.646067-63.96875299999999v511.999398a64.451689 64.451689 0 0 1-64.873336 63.969807zM252.566397 576.030494c0 141.131128 116.374451 255.999699 259.433107 255.999699 143.058655 0 259.493342-114.868571 259.493342-255.999699v-64.030042H252.506162V576.030494z m616.206334-639.999247H155.226277v511.999398h713.546454v-511.999398zM542.117116 293.64776700000004a30.117612 30.117612 0 0 1-30.117612-30.117611v-180.70567a30.117612 30.117612 0 1 1 60.235223 0v180.70567a30.117612 30.117612 0 0 1-30.117611 30.117611z"  horiz-adv-x="1024" />

    
    <glyph glyph-name="Trianglex" unicode="&#58946;" d="M512 188.75173082000003L121.50346165 579.2482691800001h780.9930767z"  horiz-adv-x="1024" />

    
    <glyph glyph-name="download" unicode="&#58947;" d="M584.411429-12.8l-51.785143-51.712L15.506286 452.754286l51.712 51.712 428.836571-428.909715V860.16h73.142857v-784.676571l428.909715 428.909714 51.785142-51.712-465.481142-465.481143z"  horiz-adv-x="1097" />

    
    <glyph glyph-name="twitter-fill" unicode="&#58949;" d="M772.421818 482.117818c-2.885818-218.530909-142.661818-368.221091-351.278545-377.669818-86.016-3.909818-148.340364 23.877818-202.612364 58.321455 63.581091-10.146909 142.429091 15.266909 184.599273 51.386181-62.324364 6.050909-99.234909 37.794909-116.503273 88.855273 18.013091-3.118545 37.003636-2.327273 54.132364 1.303273-56.273455 18.850909-96.442182 53.620364-98.490182 126.464 15.778909-7.214545 32.209455-13.963636 54.085818-15.266909-42.077091 23.924364-73.216 111.429818-37.562182 169.332363 62.464-68.514909 137.588364-124.369455 260.980364-131.909818-30.952727 132.421818 144.523636 204.241455 217.972364 115.2 31.045818 6.050909 56.32 17.780364 80.616727 30.626909-10.007273-30.72-29.277091-52.224-52.782546-69.445818 25.786182 3.490909 48.64 9.774545 68.096 19.409455-12.101818-25.134545-38.493091-47.662545-61.253818-66.606546M512 896C229.189818 896 0 666.763636 0 384c0-282.810182 229.189818-512 512-512 282.763636 0 512 229.189818 512 512 0 282.763636-229.236364 512-512 512"  horiz-adv-x="1024" />

    
    <glyph glyph-name="facebook-fill" unicode="&#58950;" d="M649.402182 386.699636h-88.901818v-320.698181H428.450909v320.698181H361.099636V497.105455h67.351273V564.549818c0 88.901818 37.748364 142.754909 142.801455 142.754909h88.901818v-110.452363h-53.899637c-40.401455 0-43.101091-16.151273-43.10109-43.101091V499.898182h99.700363l-13.498182-113.152zM512 896C229.003636 896 0 666.949818 0 384s229.050182-512 512-512 512 229.050182 512 512S794.949818 896 512 896z"  horiz-adv-x="1024" />

    
    <glyph glyph-name="weibo-fill" unicode="&#58951;" d="M464.384 314.36800000000005c-6.144 2.56-13.824-0.512-17.408-6.656-3.584-6.144-1.536-13.312 4.608-15.872 6.144-2.56 14.336 0.512 17.92 6.656 3.584 6.656 1.024 13.824-5.12 15.872z m-39.936-16.384c-16.384 6.656-36.864 0-47.104-15.872-10.24-15.872-5.12-34.304 10.752-41.984 16.384-7.68 37.888-0.512 48.128 15.872 9.728 16.384 4.608 34.816-11.776 41.984z m106.496-36.864c-21.504-48.128-82.432-73.728-134.656-57.344-50.176 16.384-71.68 65.536-49.664 110.592 21.504 44.032 77.824 68.608 127.488 55.808 51.712-13.312 77.824-61.952 56.832-109.056z m109.568 56.32c-6.656 68.608-96.768 115.712-201.216 105.472-104.448-10.24-183.808-74.24-176.64-142.848 6.656-68.608 96.768-115.712 201.216-105.472 104.448 10.24 183.296 74.24 176.64 142.848z m181.76 103.936a23.924364 23.924364 0 1 0-45.568 14.848 119.016727 119.016727 0 0 1-24.576 116.224 118.085818 118.085818 0 0 1-113.152 36.352 24.436364 24.436364 0 0 0-28.672 18.432 24.436364 24.436364 0 0 0 18.432 28.672 167.470545 167.470545 0 0 0 158.72-51.2 166.4 166.4 0 0 0 34.816-163.328z m-120.832 38.912a40.122182 40.122182 0 0 1-8.192 38.912 40.96 40.96 0 0 1-37.888 12.288 20.526545 20.526545 0 0 0-24.576 15.872 20.293818 20.293818 0 0 0 15.872 24.576 80.989091 80.989091 0 0 0 77.312-25.088c19.968-22.528 25.6-52.736 16.896-79.36a20.852364 20.852364 0 0 0-26.112-13.312 20.852364 20.852364 0 0 0-13.312 26.112z m-237.056-331.776c-131.072 0-264.704 63.488-264.704 167.936 0 54.784 34.304 117.76 94.208 177.152 79.36 79.36 172.032 115.712 206.848 80.896 15.36-15.36 16.896-41.984 7.168-73.728-5.12-15.872 14.848-7.168 14.848-7.168 64 27.136 120.32 28.672 140.8-1.024 10.752-15.36 9.728-37.376 0-62.976-4.608-11.776 1.536-13.312 10.24-16.384 36.352-11.264 76.288-38.4 76.288-86.016 0-78.848-114.176-178.688-285.696-178.688zM512 896C229.376 896 0 666.624 0 384s229.376-512 512-512 512 229.376 512 512S794.624 896 512 896z"  horiz-adv-x="1024" />

    
    <glyph glyph-name="wechat-fill" unicode="&#58952;" d="M710.516364 384.418909a24.064 24.064 0 0 1-23.319273-24.203636c0-10.845091 10.845091-21.643636 23.319273-21.643637 16.709818 0 29.230545 10.798545 29.230545 21.643637 0 13.358545-12.520727 24.203636-29.230545 24.203636z m52.596363-211.874909l16.663273-60.043636-63.394909 35.84c-24.203636-4.980364-47.476364-12.520727-71.726546-12.520728-111.802182 0-200.238545 76.8-200.238545 171.845819 0 95.092364 88.436364 171.845818 200.238545 171.845818 105.937455 0 201.029818-76.753455 201.029819-171.845818 0-53.387636-35.84-100.910545-82.571637-135.121455zM415.185455 254.27781800000002c-30.859636 0-53.387636 4.980364-82.571637 13.358546l-84.247273-42.496 24.203637 71.68c-59.252364 41.704727-94.301091 94.254545-94.301091 158.487272 0 113.477818 106.775273 200.238545 236.916364 200.238546 115.106909 0 217.739636-68.421818 237.754181-165.236364a115.432727 115.432727 0 0 1-22.481454 2.56c-113.477818 0-201.076364-85.085091-201.076364-187.717818 0.139636-16.849455 2.373818-33.652364 6.702546-49.989818-6.935273-0.698182-13.917091-0.930909-20.852364-0.837818v-0.046546zM512.046545 896C229.189818 896 0 666.763636 0 384s229.236364-512 512-512c282.810182 0 512 229.236364 512 512S794.810182 896 512 896z m67.49091-511.581091a24.576 24.576 0 0 1-23.272728-24.203636c0-10.845091 11.636364-21.690182 23.272728-21.690182 17.547636 0 30.021818 10.798545 30.021818 21.643636 0 13.358545-12.474182 24.203636-29.975273 24.203637zM337.687273 555.426909c-17.501091 0-35.84-10.845091-35.84-29.184 0-17.501091 18.338909-29.184 35.84-29.184 16.709818 0 30.021818 11.636364 30.021818 29.184 0 18.338909-13.358545 29.184-30.021818 29.184z m165.189818-58.368c18.338909 0 29.975273 11.636364 29.975273 29.184 0 18.338909-11.636364 29.184-29.975273 29.184-17.501091 0-34.210909-10.845091-34.210909-29.184 0-17.501091 16.709818-29.184 34.210909-29.184z"  horiz-adv-x="1024" />

    
    <glyph glyph-name="upload" unicode="&#58953;" d="M544 764.8V128H480V764.8L149.952 434.752 104.704 480 512 887.296l45.248-45.248L919.296 480l-45.248-45.248L544 764.8zM928-64v256h64v-320H32v320h64v-256h832z"  horiz-adv-x="1024" />

    
    <glyph glyph-name="add-bold" unicode="&#58954;" d="M460.8 435.2V896h102.4v-460.8H1024v-102.4H563.2V-128H460.8V332.79999999999995H0V435.2h460.8z"  horiz-adv-x="1024" />

    
    <glyph glyph-name="telegram-round" unicode="&#58955;" d="M449.437184-15.960694999999987l18.516777 271.522521 509.083395 444.061345c22.527324 19.88207-4.693193 29.524448-34.473633 12.202301L314.187908 327.410338 42.409394 410.863834c-58.280918 16.042185-58.878234 55.20901 13.311601 83.368166L1114.249239 889.654804c48.382549 21.162032 94.717158-11.604985 76.200381-83.453497l-180.303924-822.162002c-12.543624-58.366249-49.065195-72.531157-99.410351-45.566633L636.311577 134.90411300000005l-131.836045-123.900283c-15.359539-14.762224-27.903163-26.964524-55.038348-26.964525z"  horiz-adv-x="1194" />

    
    <glyph glyph-name="facebook-round" unicode="&#58956;" d="M716.352 384H574.4v-512H363.584V384H256V560.384h107.584V667.968C363.584 809.92 423.808 896 591.616 896H733.44v-176.384H647.424c-64.512 0-68.8-25.856-68.8-68.8v-86.08h159.168L716.288 384h0.064z"  horiz-adv-x="1024" />

    
    <glyph glyph-name="twitter-round" unicode="&#58957;" d="M1053.696 657.334857c-5.485714-415.744-271.36-700.489143-668.233143-718.409143-163.693714-7.460571-282.331429 45.348571-385.462857 110.957715 120.978286-19.309714 270.994286 29.037714 351.158857 97.718857-118.491429 11.556571-188.708571 71.899429-221.622857 168.96 34.304-5.851429 70.363429-4.315429 102.912 2.56C125.44 354.96228599999995 49.078857 421.083429 45.129143 559.6891430000001c29.988571-13.677714 61.293714-26.550857 102.912-29.037714C67.949714 576.1462859999999 8.777143 742.619429 76.580571 852.772571 195.291429 722.505143 338.358857 616.228571 573.074286 601.819429 514.194286 853.723429 848.018286 990.354286 987.721143 821.028571 1046.674286 832.438857 1094.875429 854.893714 1141.028571 879.250286c-19.017143-58.514286-55.661714-99.401143-100.352-132.096 49.005714 6.582857 92.452571 18.651429 129.536 36.937143-22.966857-47.762286-73.289143-90.697143-116.589714-126.756572"  horiz-adv-x="1170" />

    
    <glyph glyph-name="medium-round" unicode="&#58958;" d="M1098.856286 721.0911590000001L765.836117 164.45598099999995l-238.186611 397.765339L716.765264 878.149394a38.831349 38.831349 0 0 0 43.005916 16.383206l339.085106-173.520206zM1102.715791-22.454345999999987c0-32.29382-27.567895-44.738755-61.200726-27.174067L781.825496 83.09130900000002 1102.715791 619.877603v-642.410714z m-716.765264-9.136788c0-31.584931-23.70839-46.314063-51.276284-31.584931L30.324684 91.59797300000002A63.799985 63.799985 0 0 0 0 142.48043099999995V861.136065c0 25.441229 18.194811 36.23209 40.800484 25.992586L369.40979 718.806962l16.540737-25.992586v-724.40551z m346.804116 140.202437L441.086317 258.186823V597.271929l291.668326-488.739392z"  horiz-adv-x="1102" />

    
    <glyph glyph-name="youtube-round" unicode="&#58959;" d="M1356.520727 176.31418199999996c0-233.565091-233.565091-233.565091-233.565091-233.565091H233.658182C0-57.25090899999998 0 176.31418199999996 0 176.31418199999996V662.341818C0 896 233.565091 896 233.565091 896h889.390545c233.658182 0 233.658182-233.565091 233.658182-233.565091V176.40727300000003zM558.545455 244.36363600000004l372.363636 186.647273L558.545455 616.727273v-372.363637z"  horiz-adv-x="1396" />

    
    <glyph glyph-name="linkin-round" unicode="&#58960;" d="M973.451903-79.46563600000002h-202.328911l-4.710086 427.593894s4.778348 95.840011-99.321379 94.611293c-104.099727-1.160456-119.04913-94.611293-119.04913-94.611293v-427.593894H344.279981V593.667089h195.366176v-83.484568s7.986668 27.236584 52.90314 59.183255c44.916472 31.94667 119.458703 39.04593 151.473635 37.885474 31.94667-1.228718 75.634424 4.368775 149.016199-46.14519 78.364909-53.927072 80.412772-195.161389 80.412772-195.16139v-445.410306zM114.509699 666.980601a114.475568 114.475568 0 1 0 0 228.951137 114.475568 114.475568 0 0 0 0-228.951137zM13.686554-79.53389800000002V593.667089h201.714553v-673.132725H13.686554z"  horiz-adv-x="1024" />

    
    <glyph glyph-name="github-round" unicode="&#58961;" d="M0 370.304c0-229.568 143.296-424.704 343.04-496.384 26.88-7.04 22.656 12.8 22.656 26.112v91.136c-155.264-18.688-161.472 86.912-171.968 104.576-21.12 36.928-70.848 46.336-56 63.936 35.392 18.752 71.424-4.736 113.152-68.096 30.208-45.888 88.96-38.208 119.04-30.464a151.04 151.04 0 0 0 39.68 71.424c-160.704 29.312-227.84 130.176-227.84 250.112 0 57.984 18.56 111.552 55.36 154.752-23.232 71.168 2.24 131.904 5.568 140.992 66.432 6.208 135.488-48.768 140.8-53.12a487.872 487.872 0 0 0 129.088 16.064c48.448 0 91.776-5.76 129.792-16.256 12.992 10.176 76.992 57.28 138.752 51.52 3.328-8.96 28.224-68.48 6.4-138.624 37.12-43.264 55.936-97.024 55.936-155.328 0-120.128-67.456-221.184-228.8-250.304 26.88-27.264 43.648-65.152 43.648-107.008v-132.224c0.832-10.496 0-21.12 17.216-21.12C878.08-57.91999999999996 1024 138.688 1024 370.304 1024 660.672 794.752 896 512 896S0 660.672 0 370.304z"  horiz-adv-x="1024" />

    
    <glyph glyph-name="linkin-fill" unicode="&#58962;" d="M871.168 51.6096h-151.7056l-3.584 269.5168s3.584 71.8848-74.496 70.9632c-78.0288-0.8704-89.2928-70.9632-89.2928-70.9632v-269.5168H399.3088V505.344h146.432v-62.5664s6.0416 20.3776 39.7824 44.3392c33.6896 23.9616 89.6 29.2864 113.5616 28.416 23.9616-0.9216 56.7808 3.2768 111.7696-34.6112 58.8288-40.448 60.3136-146.3808 60.3136-146.3808v-282.88zM226.9184 560.2816a85.8624 85.8624 0 1 0 0.0512 171.7248 85.8624 85.8624 0 0 0 0-171.7248z m75.6224-508.672H151.3472V505.344H302.592v-453.632zM936.8576 896H85.1456C38.144 896 0 857.856 0 810.8543999999999v-853.7088C0-89.856 38.144-128 85.1456-128h851.712c47.0016 0 85.1456 38.144 85.1456 85.1456V810.8543999999999C1021.952 857.856 983.8592 896 936.8576 896z"  horiz-adv-x="1024" />

    
    <glyph glyph-name="dingbu" unicode="&#58978;" d="M614.9 493.4V204c0-14.3-11.6-25.9-25.9-25.9H433.4c-14.3 0-25.9 11.6-25.9 25.9V493.4H262c-14.3 0-25.9 11.7-25.9 26 0 6.8 2.7 13.3 7.4 18.1L492.7 790c10.1 10.2 26.5 10.3 36.7 0.3l0.3-0.3 249.2-252.5c10-10.2 9.9-26.7-0.4-36.7-4.8-4.7-11.3-7.4-18.1-7.4H614.9zM123 72.89999999999998h778.1c14.3 0 25.9-11.6 25.9-25.9v-53.2c0-14.3-11.6-25.9-25.9-25.9H123c-14.3 0-25.9 11.6-25.9 25.9V47c0 14.3 11.6 25.9 25.9 25.9z"  horiz-adv-x="1024" />

    
    <glyph glyph-name="tupian" unicode="&#58965;" d="M307.216726 457.099948A129.29405 129.29405 0 0 1 438.900053 588.783275 129.29405 129.29405 0 0 1 307.216726 720.466602 129.29405 129.29405 0 0 1 175.533398 588.783275c0-74.613726 57.069602-131.683327 131.683328-131.683327z m0 175.57777c26.350318 0 43.894442-17.544124 43.894442-43.894443s-17.544124-43.894442-43.894442-43.894442-43.894442 17.544124-43.894443 43.894442 17.544124 43.894442 43.894443 43.894443zM1097.111895 895.976107H131.775486A129.29405 129.29405 0 0 1 0.023893 764.29278v-702.106284c0-74.613726 57.069602-131.683327 131.683328-131.683328H1097.04363A129.29405 129.29405 0 0 1 1228.795222 62.186496V764.224515A129.29405 129.29405 0 0 1 1097.111895 895.976107zM87.812778 62.186496V764.224515c0 26.350318 17.544124 43.894442 43.894443 43.894442H1097.04363c26.350318 0 43.894442-17.544124 43.894442-43.894442v-500.246461L908.427231 496.625425c-52.632372 52.632372-136.052292 52.632372-184.3157 0L245.778159 18.292053H131.707221c-26.350318 0-43.894442 17.544124-43.894443 43.894443z m1009.299117-43.894443H368.655292l416.894806 416.894806a42.392611 42.392611 0 0 0 61.438566 0l294.017673-294.017673v-78.98269c0-26.350318-17.544124-43.894442-43.894442-43.894443z"  horiz-adv-x="1228" />

    
    <glyph glyph-name="sousuo" unicode="&#58966;" d="M650.563368 169.229474A377.370947 377.370947 0 0 0 157.911579 738.088421a377.263158 377.263158 0 0 0 568.912842-492.705684l269.473684-269.473684-76.207158-76.207158-269.473684 269.473684z m-35.408842 111.562105a269.473684 269.473684 0 1 1-381.035789 381.143579 269.473684 269.473684 0 0 1 381.035789-381.089684z"  horiz-adv-x="1024" />

    
    <glyph glyph-name="zhiding" unicode="&#58964;" d="M574.93408 444.8V-64a64 64 0 0 0-128 0V435.712l-203.008-203.008A64 64 0 1 0 153.43008 323.2L470.23008 640a64 64 0 0 0 90.496 0l316.8-316.8a64 64 0 1 0-90.496-90.496L574.93408 444.8zM190.93408 896h640a64 64 0 0 0 0-128H190.93408a64 64 0 1 0 0 128z"  horiz-adv-x="1024" />

    
    <glyph glyph-name="webx" unicode="&#58968;" d="M110.702703 896h830.27027a110.702703 110.702703 0 0 0 110.702703-110.702703v-553.513513a110.702703 110.702703 0 0 0-110.702703-110.702703H110.702703a110.702703 110.702703 0 0 0-110.702703 110.702703V785.297297a110.702703 110.702703 0 0 0 110.702703 110.702703z m83.027027-83.027027a110.702703 110.702703 0 0 1-110.702703-110.702703v-304.432432a110.702703 110.702703 0 0 1 110.702703-110.702703h664.216216a110.702703 110.702703 0 0 1 110.702703 110.702703V702.27027a110.702703 110.702703 0 0 1-110.702703 110.702703H193.72973z m177.152-719.567568h295.852973v-138.821189l67.113513-55.296H296.710919l74.170811 47.270054V93.405405z"  horiz-adv-x="1051" />

    
    <glyph glyph-name="pdf" unicode="&#58971;" d="M855.68-128H158.72a105.92 105.92 0 0 0-93.824 93.888V802.112A108.672 108.672 0 0 0 158.72 896h466.432l327.168-327.104v-605.888A111.68 111.68 0 0 0 855.616-128z m0 696.896H670.72c-25.6 2.816-45.44 22.72-45.44 45.504V802.112H204.224c-25.6 2.88-45.504-17.024-45.504-42.624v-748.16c5.632-22.72 22.72-42.624 45.44-45.44h605.888c25.6 2.816 45.504 22.72 45.504 45.44V568.96z m-128-358.4c-45.568 2.816-91.072 19.904-125.184 51.2-68.288-17.088-133.696-36.992-199.104-65.408-54.08-93.888-102.4-139.392-142.208-139.392-8.576 0-17.088 2.816-25.6 5.696a50.688 50.688 0 0 0-28.48 45.44c0 14.272 2.88 56.96 162.112 128 36.992 65.472 65.472 136.576 88.192 207.68-19.84 39.872-62.592 139.392-34.112 190.592a63.552 63.552 0 0 0 51.2 28.48c17.088 0 34.112-8.576 45.504-22.784 22.784-31.296 19.904-93.888-8.512-190.592 28.416-51.2 62.528-96.64 105.216-133.696a441.856 441.856 0 0 0 105.28 11.392c79.616 0 91.008-36.992 91.008-59.712-2.88-56.96-59.776-56.96-85.376-56.96z m-472.192-102.4h5.696c22.72 8.512 42.624 25.6 54.016 45.504-25.6-8.512-45.504-25.6-59.712-45.504z m221.824 503.488H471.68c-2.816 0-5.632 0-5.632-2.88-5.76-28.416-2.88-59.712 11.328-85.312a155.072 155.072 0 0 1 0 88.192z m14.272-244.672v-2.816 2.816c-17.088-39.808-34.176-79.616-51.2-116.608l2.816 2.88-2.816-2.88c36.928 14.208 76.8 25.6 113.728 34.112h2.88a438.4 438.4 0 0 0-65.408 82.56z m227.52-88.128c-14.208 0-28.416 0-42.688-2.88 17.088-8.512 34.176-11.392 51.2-14.208 11.392-2.88 22.784 0 34.176 2.816-2.88 5.76-8.576 11.392-42.688 14.272z"  horiz-adv-x="1024" />

    
    <glyph glyph-name="chakanx" unicode="&#58972;" d="M698.181818-128C199.493818-128 0 384 0 384S199.493818 896 698.181818 896 1396.363636 384 1396.363636 384 1196.683636-128 698.181818-128z m0 819.013818c-165.236364 0-299.287273-137.495273-299.287273-307.2 0-169.704727 134.050909-307.2 299.287273-307.2s299.287273 137.495273 299.287273 307.2c-0.186182 169.890909-134.237091 307.2-299.287273 307.2zM837.818182 384a139.636364 139.636364 0 1 0-279.272727 0 139.636364 139.636364 0 0 0 279.272727 0z"  horiz-adv-x="1396" />

    
    <glyph glyph-name="dianzanx" unicode="&#58973;" d="M0-76.653714h194.56V506.88H0v-583.68z m1069.933714 534.966857a97.28 97.28 0 0 1-97.28 97.28H665.6l46.445714 222.208a72.777143 72.777143 0 0 1-19.748571 66.852571L640.585143 896 320.219429 575.780571c-17.481143-17.773714-28.452571-42.130286-28.452572-68.827428v-486.4c0-53.686857 43.593143-97.28 97.28-97.28h437.686857c40.374857 0 74.898286 24.649143 89.526857 59.392l146.651429 342.893714a97.28 97.28 0 0 1 7.021714 35.474286V454.144l-0.512 0.512 0.512 3.657143z"  horiz-adv-x="1097" />

    
    <glyph glyph-name="dianpingx" unicode="&#58974;" d="M499.931429 896C223.817143 896 0 700.123429 0 458.605714c0-138.093714 73.289143-261.046857 187.465143-341.211428v-221.257143l219.062857 132.900571c30.866286-5.12 62.171429-7.826286 93.476571-7.826285 276.114286 0 499.931429 195.803429 499.931429 437.394285C999.862857 700.196571 776.045714 896 499.931429 896zM249.929143 396.068571a62.464 62.464 0 1 0 0 125.001143 62.464 62.464 0 0 0 0-125.001143z m250.002286 0a62.464 62.464 0 1 0 0 125.001143 62.464 62.464 0 0 0 0-125.001143z m249.929142 0a62.464 62.464 0 1 0 0 125.001143 62.464 62.464 0 0 0 0-125.001143z"  horiz-adv-x="1024" />

    
    <glyph glyph-name="guandianx" unicode="&#58975;" d="M345.770667 204.458667a365.714286 365.714286 0 1 0 332.458666 0L512-128l-166.229333 332.458667zM512 359.619048a170.666667 170.666667 0 1 1 0 341.333333 170.666667 170.666667 0 0 1 0-341.333333z"  horiz-adv-x="1024" />

    
    <glyph glyph-name="xingx" unicode="&#58976;" d="M551.384615 68.923077l324.056616-170.377846-61.833846 360.841846 262.144 255.606154-362.338462 52.696615L551.384615 896 389.356308 567.689846l-362.338462-52.696615L289.083077 259.387077l-61.833846-360.841846z"  horiz-adv-x="1102" />

    
    <glyph glyph-name="bule-v" unicode="&#58901;" d="M958.575709 554.9149090000001c-20.652218 23.682327-149.117673 175.243636-198.106764 228.133236-15.127273 16.346764-26.298182 27.634036-49.515054 28.509091-23.095855 0.930909-396.157673 0-396.157673 0-12.8 0-29.151418-2.909091-50.269091-27.638691C215.361164 726.318545 104.527127 599.365818 67.113891 554.859055c-25.367273-29.323636-28.509091-71.042327 0-114.036364 60.802327-70.749091 228.133236-262.749091 396.278691-456.205964 23.794036-27.578182 38.865455-28.564945 49.5104-28.564945 10.416873 0 25.195055 0.521309 49.570909 28.564945 166.460509 191.650909 326.227782 374.807273 396.101818 456.205964 23.565964 28.564945 27.987782 80.290909 0 114.092218z m-49.570909-85.527273c-55.794036-65.047273-223.534545-251.461818-356.361309-405.001309-19.432727-22.458182-31.185455-22.751418-39.507782-22.751418-8.434036 0-20.419491 0.814545-39.503127 22.751418C339.465309 219.322182 165.152582 412.718545 116.6848 469.387636c-13.498182 13.847273-13.204945 37.12 0 57.018182 29.789091 35.607273 133.934545 153.716364 173.265455 199.563637 29.207273 34.094545 54.807273 28.5696 65.047272 28.5696h316.16c37.934545 0 46.955055-8.378182 64.465455-28.5696 37.934545-43.575855 156.918691-180.596364 173.325963-199.563637 14.717673-20.829091 10.295855-40.5504 0.055855-57.018182z m-396.041309-314.88c-43.347782 58.181818-197.003636 244.829091-236.218182 298.184146l-3.025454 3.779491c-6.749091 9.020509-12.8 13.265455-29.267782 13.265454h-2.094546v40.205964h87.04c2.56 0 3.141818 0 4.887273-2.853236l178.213236-229.175855 178.501819 228.594036c2.266764 3.490909 3.081309 3.490909 5.46909 3.490909h86.6304v-40.261818h-1.978181c-16.290909 0-22.458182-4.244945-29.207273-13.321309-0.698182-0.875055-1.396364-1.922327-2.443636-3.085963-39.619491-53.815855-193.219491-240.64-236.506764-298.821819z"  horiz-adv-x="1024" />

    
    <glyph glyph-name="crown-v2" unicode="&#58902;" d="M846.066036 627.6514910000001a59.862109 59.862109 0 0 1-42.984727-97.447564l-6.306909-26.2656c-13.600582-57.097309-66.7136-95.823127-125.239855-91.312872-58.5216 4.514909-105.071709 50.920727-109.754181 109.433018l-5.920582 74.435491a87.942982 87.942982 0 1 1-96.833164 0l-5.911273-74.435491c-4.687127-58.507636-51.237236-104.918109-109.76349-109.428364-58.5216-4.514909-111.634618 34.210909-125.2352 91.308218l-6.213819 26.2656a59.862109 59.862109 0 0 1-42.961454 97.447564 60.062255 60.062255 0 0 1-28.215855-114.860218l53.434182-377.530182h626.334255v0.195491l53.4528 377.334691a60.062255 60.062255 0 0 1-27.880728 114.860218zM285.430691 14.089308999999957a92.811636 92.811636 0 0 0-92.848873 92.853527h626.394764c-0.023273-51.269818-41.579055-92.830255-92.853527-92.853527h-440.692364zM105.211345 567.784727c0-33.233455 26.945164-60.178618 60.183273-60.178618 33.233455 0 60.173964 26.945164 60.173964 60.183273 0 33.233455-26.940509 60.173964-60.178618 60.173963a60.16 60.16 0 0 1-60.178619-60.178618zM846.066036 627.6514910000001a59.862109 59.862109 0 0 1-42.984727-97.447564l-6.306909-26.2656c-13.600582-57.097309-66.7136-95.823127-125.239855-91.312872-58.5216 4.514909-105.071709 50.920727-109.754181 109.433018l-5.920582 74.435491a87.626473 87.626473 0 0 1-48.584146 161.293963v-622.629236h313.218328v0.195491l53.4528 377.344a60.118109 60.118109 0 0 1-27.880728 114.953309zM789.755345 567.784727c0-33.1776 26.898618-60.080873 60.076219-60.080872 33.186909 0 60.080873 26.903273 60.080872 60.080872 0 33.186909-26.898618 60.080873-60.080872 60.080873a60.062255 60.062255 0 0 1-60.076219-60.080873z m-371.130181 103.656728a88.9856 88.9856 0 1 1 177.9712 0.037236 88.9856 88.9856 0 0 1-177.9712-0.037236zM505.697745 106.94283600000006v-92.853527h222.654837a90.563491 90.563491 0 0 1 90.703127 90.703127v2.229528l-313.357964-0.079128zM208.965818 609.3312000000001c-7.121455-36.752291-37.362036-68.635927-80.840145-88.394473a59.154618 59.154618 0 0 1 37.264291-13.232872 60.136727 60.136727 0 0 1 43.575854 101.627345z m684.637091-0.512c-8.238545-36.240291-38.995782-67.416436-82.478545-86.541964a59.843491 59.843491 0 0 1 98.988218 45.507491 60.672 60.672 0 0 1-16.505018 41.034473z m-324.096 126.352291c1.8944-5.366691 2.895127-11.012655 2.955636-16.700509 0-41.844364-52.228655-75.855127-116.568436-75.855127-11.254691-0.027927-22.481455 1.070545-33.522036 3.272145a88.948364 88.948364 0 1 1 147.116218 89.283491h0.018618zM135.144727 594.0503269999999c1.219491-2.131782 4.989673-2.541382 9.974691-1.121745a36.538182 36.538182 0 0 1 14.056727 8.145454c3.770182 3.565382 5.306182 7.033018 4.086691 9.1648-1.224145 2.127127-4.989673 2.541382-9.979345 1.121746a36.0448 36.0448 0 0 1-14.056727-8.145455c-3.770182-3.565382-5.306182-7.135418-4.082037-9.1648z m724.447418 2.1504c4.989673-2.862545 10.295855-4.496291 13.805382-4.082036 3.509527 0.414255 4.887273 2.639127 3.449018 5.911273-1.442909 3.2768-5.380655 7.121455-10.491345 9.979345-5.106036 2.857891-10.272582 4.477673-13.800727 4.063418-3.528145-0.418909-4.887273-2.643782-3.467637-5.915927 1.419636-3.272145 5.417891-7.121455 10.505309-9.960727z m-387.314036 137.648873c0-4.794182 15.062109-8.657455 33.698909-8.657455 18.632145 0 33.698909 3.9424 33.698909 8.657455 0 4.7104-15.066764 8.657455-33.698909 8.657455-18.6368 0-33.698909-3.965673-33.698909-8.657455zM484.384582 283.298909a20.563782 20.563782 0 0 0 0 41.132218h50.003782a20.563782 20.563782 0 1 0 0-41.132218h-50.003782zM507.513018 324.528873v-41.406837h26.875346a20.703418 20.703418 0 0 1 0 41.406837h-26.875346z"  horiz-adv-x="1024" />

    
    <glyph glyph-name="crown-v3" unicode="&#58903;" d="M794.824145 592.048873a59.862109 59.862109 0 0 1 8.257164-61.844946l-6.306909-26.2656c-13.600582-57.097309-66.7136-95.823127-125.239855-91.312872-58.5216 4.514909-105.071709 50.920727-109.754181 109.433018l-5.920582 74.435491a87.942982 87.942982 0 1 1-96.833164 0l-5.911273-74.435491c-4.687127-58.507636-51.237236-104.918109-109.76349-109.428364-58.5216-4.514909-111.634618 34.210909-125.2352 91.308218l-6.213819 26.2656a59.862109 59.862109 0 0 1-42.961454 97.447564 60.062255 60.062255 0 0 1-28.215855-114.860218l53.434182-377.530182h626.334255v0.195491l53.4528 377.334691a60.062255 60.062255 0 0 1-27.880728 114.860218 59.862109 59.862109 0 0 1-51.246545-35.602618zM285.430691 14.089308999999957a92.811636 92.811636 0 0 0-92.848873 92.853527h626.394764c-0.023273-51.269818-41.579055-92.830255-92.853527-92.853527h-440.692364zM105.211345 567.784727c0-33.233455 26.945164-60.178618 60.183273-60.178618 33.233455 0 60.173964 26.945164 60.173964 60.183273 0 33.233455-26.940509 60.173964-60.178618 60.173963a60.16 60.16 0 0 1-60.178619-60.178618zM846.066036 627.6514910000001a59.862109 59.862109 0 0 1-42.984727-97.447564l-6.306909-26.2656c-13.600582-57.097309-66.7136-95.823127-125.239855-91.312872-58.5216 4.514909-105.071709 50.920727-109.754181 109.433018l-5.920582 74.435491a87.626473 87.626473 0 0 1-48.584146 161.293963v-622.629236h313.218328v0.195491l53.4528 377.344a60.118109 60.118109 0 0 1-27.880728 114.953309zM789.755345 567.784727c0-33.1776 26.898618-60.080873 60.076219-60.080872 33.186909 0 60.080873 26.903273 60.080872 60.080872 0 33.186909-26.898618 60.080873-60.080872 60.080873a60.062255 60.062255 0 0 1-60.076219-60.080873z m-371.130181 103.656728a88.9856 88.9856 0 1 1 177.9712 0.037236 88.9856 88.9856 0 0 1-177.9712-0.037236zM505.697745 106.94283600000006v-92.853527h222.654837a90.563491 90.563491 0 0 1 90.703127 90.703127v2.229528l-313.357964-0.079128zM208.965818 609.3312000000001c-7.121455-36.752291-37.362036-68.635927-80.840145-88.394473a59.154618 59.154618 0 0 1 37.264291-13.232872 60.136727 60.136727 0 0 1 43.575854 101.627345z m684.637091-0.512c-8.238545-36.240291-38.995782-67.416436-82.478545-86.541964a59.843491 59.843491 0 0 1 98.988218 45.507491 60.672 60.672 0 0 1-16.505018 41.034473z m-324.096 126.352291c1.8944-5.366691 2.895127-11.012655 2.955636-16.700509 0-41.844364-52.228655-75.855127-116.568436-75.855127-11.254691-0.027927-22.481455 1.070545-33.522036 3.272145a88.948364 88.948364 0 1 1 147.116218 89.283491h0.018618zM135.144727 594.0503269999999c1.219491-2.131782 4.989673-2.541382 9.974691-1.121745a36.538182 36.538182 0 0 1 14.056727 8.145454c3.770182 3.565382 5.306182 7.033018 4.086691 9.1648-1.224145 2.127127-4.989673 2.541382-9.979345 1.121746a36.0448 36.0448 0 0 1-14.056727-8.145455c-3.770182-3.565382-5.306182-7.135418-4.082037-9.1648z m724.447418 2.1504c4.989673-2.862545 10.295855-4.496291 13.805382-4.082036 3.509527 0.414255 4.887273 2.639127 3.449018 5.911273-1.442909 3.2768-5.380655 7.121455-10.491345 9.979345-5.106036 2.857891-10.272582 4.477673-13.800727 4.063418-3.528145-0.418909-4.887273-2.643782-3.467637-5.915927 1.419636-3.272145 5.417891-7.121455 10.505309-9.960727z m-387.314036 137.648873c0-4.794182 15.062109-8.657455 33.698909-8.657455 18.632145 0 33.698909 3.9424 33.698909 8.657455 0 4.7104-15.066764 8.657455-33.698909 8.657455-18.6368 0-33.698909-3.965673-33.698909-8.657455zM484.384582 283.298909a20.563782 20.563782 0 0 0 0 41.132218h50.003782a20.563782 20.563782 0 1 0 0-41.132218h-50.003782zM507.513018 324.528873v-41.406837h26.875346a20.703418 20.703418 0 0 1 0 41.406837h-26.875346z"  horiz-adv-x="1024" />

    
    <glyph glyph-name="crown-v1" unicode="&#58904;" d="M800.679564 591.3274180000001a60.066909 60.066909 0 0 1 8.289745-62.059054l-6.330182-26.354037c-13.647127-57.297455-66.941673-96.1536-125.668072-91.624727-58.7264 4.528873-105.430109 51.0976-110.135855 109.805382l-5.934545 74.691491a88.240873 88.240873 0 1 1-97.163637 0l-5.9392-74.691491c-4.701091-58.707782-51.409455-105.276509-110.1312-109.805382-58.7264-4.528873-112.020945 34.327273-125.668073 91.624727l-6.232436 26.354037a60.066909 60.066909 0 0 1-43.1104 97.778036 60.267055 60.267055 0 0 1-28.3136-115.246545l53.620364-378.833455h628.475345v0.200145l53.638982 378.628655a60.267055 60.267055 0 0 1-27.973818 115.2512 60.066909 60.066909 0 0 1-51.423418-35.718982zM731.745745 11.389673000000016H289.545309a93.128145 93.128145 0 0 0-93.170036 93.165382h628.540509c-0.023273-51.446691-41.723345-93.146764-93.170037-93.165382zM108.706909 566.979491c0-33.349818 27.038255-60.383418 60.388073-60.383418s60.383418 27.0336 60.383418 60.383418c0 33.349818-27.0336 60.383418-60.383418 60.383418a60.3648 60.3648 0 0 1-60.388073-60.383418zM852.102982 627.0464a60.066909 60.066909 0 0 1-43.133673-97.778036l-6.330182-26.354037c-13.647127-57.297455-66.941673-96.1536-125.668072-91.624727-58.7264 4.528873-105.430109 51.0976-110.135855 109.805382l-5.934545 74.691491a87.924364 87.924364 0 0 1-48.75171 161.8432v-624.761018h314.288873v0.200145l53.638982 378.628655a60.322909 60.322909 0 0 1-27.973818 115.348945zM795.592145 566.979491c0-33.293964 26.996364-60.285673 60.285673-60.285673 33.298618 0 60.285673 26.991709 60.285673 60.285673s-26.987055 60.285673-60.285673 60.285673a60.267055 60.267055 0 0 1-60.285673-60.285673zM423.195927 670.989964a89.2928 89.2928 0 1 1 178.580946 0.037236 89.2928 89.2928 0 0 1-178.580946-0.037236zM510.5664 104.55505500000004v-93.165382h223.418182a90.875345 90.875345 0 0 1 91.010327 91.010327v2.234182l-314.428509-0.079127zM212.819782 608.6656c-7.144727-36.877964-37.492364-68.873309-81.119418-88.697018a59.354764 59.354764 0 0 1 37.394618-13.274764 60.346182 60.346182 0 0 1 43.7248 101.971782z m686.982982-0.512c-8.271127-36.365964-39.135418-67.649164-82.757819-86.839855a60.048291 60.048291 0 0 1 99.318691 45.661091 60.881455 60.881455 0 0 1-16.560872 41.178764z m-325.213091 126.780509c1.908364-5.385309 2.909091-11.045236 2.9696-16.756364 0-41.984-52.410182-76.115782-116.968728-76.115781a169.639564 169.639564 0 0 0-33.633745 3.286109 89.250909 89.250909 0 1 1 147.614255 89.586036h0.023272zM138.742691 593.333527c1.2288-2.141091 5.003636-2.555345 10.007273-1.1264a36.663855 36.663855 0 0 1 14.112581 8.168728c3.779491 3.584 5.320145 7.0656 4.096 9.202036-1.2288 2.136436-5.008291 2.550691-10.011927 1.1264a36.165818 36.165818 0 0 1-14.107927-8.173382c-3.779491-3.579345-5.3248-7.158691-4.096-9.197382z m726.932945 2.155055c5.003636-2.8672 10.323782-4.510255 13.847273-4.096 3.523491 0.418909 4.905891 2.653091 3.462982 5.934545-1.442909 3.286109-5.399273 7.144727-10.523927 10.011928-5.124655 2.871855-10.309818 4.491636-13.851928 4.077381-3.537455-0.418909-4.905891-2.653091-3.4816-5.934545 1.424291-3.286109 5.441164-7.144727 10.5472-9.993309z m-388.645236 138.123636c0-4.808145 15.117964-8.685382 33.815273-8.685382 18.697309 0 33.810618 3.956364 33.810618 8.685382s-15.113309 8.685382-33.810618 8.685382-33.815273-3.979636-33.815273-8.685382zM539.354764 281.516218h-50.176a20.638255 20.638255 0 1 0 0 41.271855h50.176a20.638255 20.638255 0 0 0 0-41.271855zM539.354764 322.885818h-26.968437v-41.546473h26.968437a20.773236 20.773236 0 1 1 0 41.546473z"  horiz-adv-x="1024" />

    
    <glyph glyph-name="crown-v4" unicode="&#58905;" d="M846.066036 627.6514910000001a59.862109 59.862109 0 0 1-42.984727-97.447564l-6.306909-26.2656c-13.600582-57.097309-66.7136-95.823127-125.239855-91.312872-58.5216 4.514909-105.071709 50.920727-109.754181 109.433018l-5.920582 74.435491a87.942982 87.942982 0 1 1-96.833164 0l-5.911273-74.435491c-4.687127-58.507636-51.237236-104.918109-109.76349-109.428364-58.5216-4.514909-111.634618 34.210909-125.2352 91.308218l-6.213819 26.2656a59.862109 59.862109 0 0 1-42.961454 97.447564 60.062255 60.062255 0 0 1-28.215855-114.860218l53.434182-377.530182h626.334255v0.195491l53.4528 377.334691a60.062255 60.062255 0 0 1-27.880728 114.860218zM726.123055 14.089308999999957h-440.692364a92.811636 92.811636 0 0 0-92.848873 92.853527h626.394764c-0.023273-51.269818-41.579055-92.830255-92.853527-92.853527zM105.211345 567.784727c0-33.233455 26.945164-60.178618 60.183273-60.178618 33.233455 0 60.173964 26.945164 60.173964 60.183273 0 33.233455-26.940509 60.173964-60.178618 60.173963a60.16 60.16 0 0 1-60.178619-60.178618zM846.066036 627.6514910000001a59.862109 59.862109 0 0 1-42.984727-97.447564l-6.306909-26.2656c-13.600582-57.097309-66.7136-95.823127-125.239855-91.312872-58.5216 4.514909-105.071709 50.920727-109.754181 109.433018l-5.920582 74.435491a87.626473 87.626473 0 0 1-48.584146 161.293963v-622.629236h313.218328v0.195491l53.4528 377.344a60.118109 60.118109 0 0 1-27.880728 114.953309zM789.755345 567.784727c0-33.1776 26.898618-60.080873 60.076219-60.080872 33.186909 0 60.080873 26.903273 60.080872 60.080872 0 33.186909-26.898618 60.080873-60.080872 60.080873a60.062255 60.062255 0 0 1-60.076219-60.080873z m-371.130181 103.656728a88.9856 88.9856 0 1 1 177.9712 0.037236 88.9856 88.9856 0 0 1-177.9712-0.037236zM505.697745 106.94283600000006v-92.853527h222.654837a90.563491 90.563491 0 0 1 90.703127 90.703127v2.229528l-313.357964-0.079128zM208.965818 609.3312000000001c-7.121455-36.752291-37.362036-68.635927-80.840145-88.394473a59.154618 59.154618 0 0 1 37.264291-13.232872 60.136727 60.136727 0 0 1 43.575854 101.627345z m684.637091-0.512c-8.238545-36.240291-38.995782-67.416436-82.478545-86.541964a59.843491 59.843491 0 0 1 98.988218 45.507491 60.672 60.672 0 0 1-16.505018 41.034473z m-324.096 126.352291c1.8944-5.366691 2.895127-11.012655 2.955636-16.700509 0-41.844364-52.228655-75.855127-116.568436-75.855127-11.254691-0.027927-22.481455 1.070545-33.522036 3.272145a88.948364 88.948364 0 1 1 147.116218 89.283491h0.018618zM135.144727 594.0503269999999c1.219491-2.131782 4.989673-2.541382 9.974691-1.121745a36.538182 36.538182 0 0 1 14.056727 8.145454c3.770182 3.565382 5.306182 7.033018 4.086691 9.1648-1.224145 2.127127-4.989673 2.541382-9.979345 1.121746a36.0448 36.0448 0 0 1-14.056727-8.145455c-3.770182-3.565382-5.306182-7.135418-4.082037-9.1648z m724.447418 2.1504c4.989673-2.862545 10.295855-4.496291 13.805382-4.082036 3.509527 0.414255 4.887273 2.639127 3.449018 5.911273-1.442909 3.2768-5.380655 7.121455-10.491345 9.979345-5.106036 2.857891-10.272582 4.477673-13.800727 4.063418-3.528145-0.418909-4.887273-2.643782-3.467637-5.915927 1.419636-3.272145 5.417891-7.121455 10.505309-9.960727z m-387.314036 137.648873c0-4.794182 15.062109-8.657455 33.698909-8.657455 18.632145 0 33.698909 3.9424 33.698909 8.657455 0 4.7104-15.066764 8.657455-33.698909 8.657455-18.6368 0-33.698909-3.965673-33.698909-8.657455zM484.384582 283.298909a20.563782 20.563782 0 0 0 0 41.132218h50.003782a20.563782 20.563782 0 1 0 0-41.132218h-50.003782zM507.513018 324.528873v-41.406837h26.875346a20.703418 20.703418 0 0 1 0 41.406837h-26.875346z"  horiz-adv-x="1024" />

    
    <glyph glyph-name="yellow-v" unicode="&#58906;" d="M958.575709 554.9149090000001c-20.652218 23.682327-149.117673 175.243636-198.106764 228.133236-15.127273 16.346764-26.298182 27.634036-49.515054 28.509091-23.095855 0.930909-396.157673 0-396.157673 0-12.8 0-29.151418-2.909091-50.269091-27.638691C215.361164 726.318545 104.527127 599.365818 67.113891 554.859055c-25.367273-29.323636-28.509091-71.042327 0-114.036364 60.802327-70.749091 228.133236-262.749091 396.278691-456.205964 23.794036-27.578182 38.865455-28.564945 49.5104-28.564945 10.416873 0 25.195055 0.521309 49.570909 28.564945 166.460509 191.650909 326.227782 374.807273 396.101818 456.205964 23.565964 28.564945 27.987782 80.290909 0 114.092218z m-49.570909-85.527273c-55.794036-65.047273-223.534545-251.461818-356.361309-405.001309-19.432727-22.458182-31.185455-22.751418-39.507782-22.751418-8.434036 0-20.419491 0.814545-39.503127 22.751418C339.465309 219.322182 165.152582 412.718545 116.6848 469.387636c-13.498182 13.847273-13.204945 37.12 0 57.018182 29.789091 35.607273 133.934545 153.716364 173.265455 199.563637 29.207273 34.094545 54.807273 28.5696 65.047272 28.5696h316.16c37.934545 0 46.955055-8.378182 64.465455-28.5696 37.934545-43.575855 156.918691-180.596364 173.325963-199.563637 14.717673-20.829091 10.295855-40.5504 0.055855-57.018182z m-396.041309-314.88c-43.347782 58.181818-197.003636 244.829091-236.218182 298.184146l-3.025454 3.779491c-6.749091 9.020509-12.8 13.265455-29.267782 13.265454h-2.094546v40.205964h87.04c2.56 0 3.141818 0 4.887273-2.853236l178.213236-229.175855 178.501819 228.594036c2.266764 3.490909 3.081309 3.490909 5.46909 3.490909h86.6304v-40.261818h-1.978181c-16.290909 0-22.458182-4.244945-29.207273-13.321309-0.698182-0.875055-1.396364-1.922327-2.443636-3.085963-39.619491-53.815855-193.219491-240.64-236.506764-298.821819z"  horiz-adv-x="1024" />

    


  </font>
</defs>
</svg>
