<?xml version="1.0" standalone="no"?><!DOCTYPE svg PUBLIC "-//W3C//DTD SVG 1.1//EN" "http://www.w3.org/Graphics/SVG/1.1/DTD/svg11.dtd"><svg t="1562228568191" class="icon" viewBox="0 0 1024 1024" version="1.1" xmlns="http://www.w3.org/2000/svg" p-id="4613" width="32" height="32" xmlns:xlink="http://www.w3.org/1999/xlink"><defs><style type="text/css"></style></defs><path d="M958.575709 341.085091c-20.652218-23.682327-149.117673-175.243636-198.106764-228.133236-15.127273-16.346764-26.298182-27.634036-49.515054-28.509091-23.095855-0.930909-396.157673 0-396.157673 0-12.8 0-29.151418 2.909091-50.269091 27.638691C215.361164 169.681455 104.527127 296.634182 67.113891 341.140945c-25.367273 29.323636-28.509091 71.042327 0 114.036364 60.802327 70.749091 228.133236 262.749091 396.278691 456.205964 23.794036 27.578182 38.865455 28.564945 49.5104 28.564945 10.416873 0 25.195055-0.521309 49.570909-28.564945 166.460509-191.650909 326.227782-374.807273 396.101818-456.205964 23.565964-28.564945 27.987782-80.290909 0-114.092218z m-49.570909 85.527273c-55.794036 65.047273-223.534545 251.461818-356.361309 405.001309-19.432727 22.458182-31.185455 22.751418-39.507782 22.751418-8.434036 0-20.419491-0.814545-39.503127-22.751418C339.465309 676.677818 165.152582 483.281455 116.6848 426.612364c-13.498182-13.847273-13.204945-37.12 0-57.018182 29.789091-35.607273 133.934545-153.716364 173.265455-199.563637 29.207273-34.094545 54.807273-28.5696 65.047272-28.5696h316.16c37.934545 0 46.955055 8.378182 64.465455 28.5696 37.934545 43.575855 156.918691 180.596364 173.325963 199.563637 14.717673 20.829091 10.295855 40.5504 0.055855 57.018182z m-396.041309 314.88c-43.347782-58.181818-197.003636-244.829091-236.218182-298.184146l-3.025454-3.779491c-6.749091-9.020509-12.8-13.265455-29.267782-13.265454h-2.094546v-40.205964h87.04c2.56 0 3.141818 0 4.887273 2.853236l178.213236 229.175855 178.501819-228.594036c2.266764-3.490909 3.081309-3.490909 5.46909-3.490909h86.6304v40.261818h-1.978181c-16.290909 0-22.458182 4.244945-29.207273 13.321309-0.698182 0.875055-1.396364 1.922327-2.443636 3.085963-39.619491 53.815855-193.219491 240.64-236.506764 298.821819z" fill="#1296DB" p-id="4614"></path></svg>