<?xml version="1.0" standalone="no"?><!DOCTYPE svg PUBLIC "-//W3C//DTD SVG 1.1//EN" "http://www.w3.org/Graphics/SVG/1.1/DTD/svg11.dtd"><svg t="1562222412760" class="icon" viewBox="0 0 1024 1024" version="1.1" xmlns="http://www.w3.org/2000/svg" p-id="3625" width="32" height="32" xmlns:xlink="http://www.w3.org/1999/xlink"><defs><style type="text/css"></style></defs><path d="M800.679564 304.672582a60.066909 60.066909 0 0 0 8.289745 62.059054l-6.330182 26.354037c-13.647127 57.297455-66.941673 96.1536-125.668072 91.624727-58.7264-4.528873-105.430109-51.0976-110.135855-109.805382l-5.934545-74.691491a88.240873 88.240873 0 1 0-97.163637 0l-5.9392 74.691491c-4.701091 58.707782-51.409455 105.276509-110.1312 109.805382-58.7264 4.528873-112.020945-34.327273-125.668073-91.624727l-6.232436-26.354037a60.066909 60.066909 0 0 0-43.1104-97.778036 60.267055 60.267055 0 0 0-28.3136 115.246545l53.620364 378.833455h628.475345v-0.200145l53.638982-378.628655a60.267055 60.267055 0 0 0-27.973818-115.2512 60.066909 60.066909 0 0 0-51.423418 35.718982z" fill="#F9A470" p-id="3626"></path><path d="M731.745745 884.610327H289.545309a93.128145 93.128145 0 0 1-93.170036-93.165382h628.540509c-0.023273 51.446691-41.723345 93.146764-93.170037 93.165382z" fill="#DF8E5D" p-id="3627"></path><path d="M108.706909 329.020509c0 33.349818 27.038255 60.383418 60.388073 60.383418s60.383418-27.0336 60.383418-60.383418c0-33.349818-27.0336-60.383418-60.383418-60.383418a60.3648 60.3648 0 0 0-60.388073 60.383418z" fill="#FFCBA7" p-id="3628"></path><path d="M852.102982 268.9536a60.066909 60.066909 0 0 0-43.133673 97.778036l-6.330182 26.354037c-13.647127 57.297455-66.941673 96.1536-125.668072 91.624727-58.7264-4.528873-105.430109-51.0976-110.135855-109.805382l-5.934545-74.691491a87.924364 87.924364 0 0 0-48.75171-161.8432v624.761018h314.288873v-0.200145l53.638982-378.628655a60.322909 60.322909 0 0 0-27.973818-115.348945z" fill="#DB854E" p-id="3629"></path><path d="M795.592145 329.020509c0 33.293964 26.996364 60.285673 60.285673 60.285673 33.298618 0 60.285673-26.991709 60.285673-60.285673s-26.987055-60.285673-60.285673-60.285673a60.267055 60.267055 0 0 0-60.285673 60.285673zM423.195927 225.010036a89.2928 89.2928 0 1 0 178.580946-0.037236 89.2928 89.2928 0 0 0-178.580946 0.037236z" fill="#FFCBA7" p-id="3630"></path><path d="M510.5664 791.444945v93.165382h223.418182a90.875345 90.875345 0 0 0 91.010327-91.010327v-2.234182l-314.428509 0.079127z" fill="#BE6933" p-id="3631"></path><path d="M212.819782 287.3344c-7.144727 36.877964-37.492364 68.873309-81.119418 88.697018a59.354764 59.354764 0 0 0 37.394618 13.274764 60.346182 60.346182 0 0 0 43.7248-101.971782z m686.982982 0.512c-8.271127 36.365964-39.135418 67.649164-82.757819 86.839855a60.048291 60.048291 0 0 0 99.318691-45.661091 60.881455 60.881455 0 0 0-16.560872-41.178764z m-325.213091-126.780509c1.908364 5.385309 2.909091 11.045236 2.9696 16.756364 0 41.984-52.410182 76.115782-116.968728 76.115781a169.639564 169.639564 0 0 1-33.633745-3.286109 89.250909 89.250909 0 1 0 147.614255-89.586036h0.023272z" fill="#FFB583" p-id="3632"></path><path d="M138.742691 302.666473c1.2288 2.141091 5.003636 2.555345 10.007273 1.1264a36.663855 36.663855 0 0 0 14.112581-8.168728c3.779491-3.584 5.320145-7.0656 4.096-9.202036-1.2288-2.136436-5.008291-2.550691-10.011927-1.1264a36.165818 36.165818 0 0 0-14.107927 8.173382c-3.779491 3.579345-5.3248 7.158691-4.096 9.197382z m726.932945-2.155055c5.003636 2.8672 10.323782 4.510255 13.847273 4.096 3.523491-0.418909 4.905891-2.653091 3.462982-5.934545-1.442909-3.286109-5.399273-7.144727-10.523927-10.011928-5.124655-2.871855-10.309818-4.491636-13.851928-4.077381-3.537455 0.418909-4.905891 2.653091-3.4816 5.934545 1.424291 3.286109 5.441164 7.144727 10.5472 9.993309z m-388.645236-138.123636c0 4.808145 15.117964 8.685382 33.815273 8.685382 18.697309 0 33.810618-3.956364 33.810618-8.685382s-15.113309-8.685382-33.810618-8.685382-33.815273 3.979636-33.815273 8.685382z" fill="#FFFFFF" p-id="3633"></path><path d="M539.354764 614.483782h-50.176a20.638255 20.638255 0 1 1 0-41.271855h50.176a20.638255 20.638255 0 0 1 0 41.271855z" fill="#6383FF" p-id="3634"></path><path d="M539.354764 573.114182h-26.968437v41.546473h26.968437a20.773236 20.773236 0 1 0 0-41.546473z" fill="#2543FF" p-id="3635"></path></svg>