<?xml version="1.0" standalone="no"?><!DOCTYPE svg PUBLIC "-//W3C//DTD SVG 1.1//EN" "http://www.w3.org/Graphics/SVG/1.1/DTD/svg11.dtd"><svg t="1562222400895" class="icon" viewBox="0 0 1024 1024" version="1.1" xmlns="http://www.w3.org/2000/svg" p-id="3398" width="32" height="32" xmlns:xlink="http://www.w3.org/1999/xlink"><defs><style type="text/css"></style></defs><path d="M846.066036 268.348509a59.862109 59.862109 0 0 0-42.984727 97.447564l-6.306909 26.2656c-13.600582 57.097309-66.7136 95.823127-125.239855 91.312872-58.5216-4.514909-105.071709-50.920727-109.754181-109.433018l-5.920582-74.435491a87.942982 87.942982 0 1 0-96.833164 0l-5.911273 74.435491c-4.687127 58.507636-51.237236 104.918109-109.76349 109.428364-58.5216 4.514909-111.634618-34.210909-125.2352-91.308218l-6.213819-26.2656a59.862109 59.862109 0 0 0-42.961454-97.447564 60.062255 60.062255 0 0 0-28.215855 114.860218l53.434182 377.530182h626.334255v-0.195491l53.4528-377.334691a60.062255 60.062255 0 0 0-27.880728-114.860218z" fill="#C2FEFF" p-id="3399"></path><path d="M726.123055 881.910691h-440.692364a92.811636 92.811636 0 0 1-92.848873-92.853527h626.394764c-0.023273 51.269818-41.579055 92.830255-92.853527 92.853527z" fill="#70C3ED" p-id="3400"></path><path d="M105.211345 328.215273c0 33.233455 26.945164 60.178618 60.183273 60.178618 33.233455 0 60.173964-26.945164 60.173964-60.183273 0-33.233455-26.940509-60.173964-60.178618-60.173963a60.16 60.16 0 0 0-60.178619 60.178618z" fill="#C2FEFF" p-id="3401"></path><path d="M846.066036 268.348509a59.862109 59.862109 0 0 0-42.984727 97.447564l-6.306909 26.2656c-13.600582 57.097309-66.7136 95.823127-125.239855 91.312872-58.5216-4.514909-105.071709-50.920727-109.754181-109.433018l-5.920582-74.435491a87.626473 87.626473 0 0 0-48.584146-161.293963v622.629236h313.218328v-0.195491l53.4528-377.344a60.118109 60.118109 0 0 0-27.880728-114.953309z" fill="#99FFFF" p-id="3402"></path><path d="M789.755345 328.215273c0 33.1776 26.898618 60.080873 60.076219 60.080872 33.186909 0 60.080873-26.903273 60.080872-60.080872 0-33.186909-26.898618-60.080873-60.080872-60.080873a60.062255 60.062255 0 0 0-60.076219 60.080873z m-371.130181-103.656728a88.9856 88.9856 0 1 0 177.9712-0.037236 88.9856 88.9856 0 0 0-177.9712 0.037236z" fill="#C2FEFF" p-id="3403"></path><path d="M505.697745 789.057164v92.853527h222.654837a90.563491 90.563491 0 0 0 90.703127-90.703127v-2.229528l-313.357964 0.079128z" fill="#4CB4E7" p-id="3404"></path><path d="M208.965818 286.6688c-7.121455 36.752291-37.362036 68.635927-80.840145 88.394473a59.154618 59.154618 0 0 0 37.264291 13.232872 60.136727 60.136727 0 0 0 43.575854-101.627345z m684.637091 0.512c-8.238545 36.240291-38.995782 67.416436-82.478545 86.541964a59.843491 59.843491 0 0 0 98.988218-45.507491 60.672 60.672 0 0 0-16.505018-41.034473z m-324.096-126.352291c1.8944 5.366691 2.895127 11.012655 2.955636 16.700509 0 41.844364-52.228655 75.855127-116.568436 75.855127-11.254691 0.027927-22.481455-1.070545-33.522036-3.272145a88.948364 88.948364 0 1 0 147.116218-89.283491h0.018618z" fill="#9CFFFF" p-id="3405"></path><path d="M135.144727 301.949673c1.219491 2.131782 4.989673 2.541382 9.974691 1.121745a36.538182 36.538182 0 0 0 14.056727-8.145454c3.770182-3.565382 5.306182-7.033018 4.086691-9.1648-1.224145-2.127127-4.989673-2.541382-9.979345-1.121746a36.0448 36.0448 0 0 0-14.056727 8.145455c-3.770182 3.565382-5.306182 7.135418-4.082037 9.1648z m724.447418-2.1504c4.989673 2.862545 10.295855 4.496291 13.805382 4.082036 3.509527-0.414255 4.887273-2.639127 3.449018-5.911273-1.442909-3.2768-5.380655-7.121455-10.491345-9.979345-5.106036-2.857891-10.272582-4.477673-13.800727-4.063418-3.528145 0.418909-4.887273 2.643782-3.467637 5.915927 1.419636 3.272145 5.417891 7.121455 10.505309 9.960727z m-387.314036-137.648873c0 4.794182 15.062109 8.657455 33.698909 8.657455 18.632145 0 33.698909-3.9424 33.698909-8.657455 0-4.7104-15.066764-8.657455-33.698909-8.657455-18.6368 0-33.698909 3.965673-33.698909 8.657455z" fill="#FFFFFF" p-id="3406"></path><path d="M484.384582 612.701091a20.563782 20.563782 0 0 1 0-41.132218h50.003782a20.563782 20.563782 0 1 1 0 41.132218h-50.003782z" fill="#688AFF" p-id="3407"></path><path d="M507.513018 571.471127v41.406837h26.875346a20.703418 20.703418 0 0 0 0-41.406837h-26.875346z" fill="#2644FF" p-id="3408"></path></svg>