<?xml version="1.0" standalone="no"?><!DOCTYPE svg PUBLIC "-//W3C//DTD SVG 1.1//EN" "http://www.w3.org/Graphics/SVG/1.1/DTD/svg11.dtd"><svg class="icon" width="48px" height="48.00px" viewBox="0 0 1024 1024" version="1.1" xmlns="http://www.w3.org/2000/svg"><path d="M20.945455 144.290909h975.127272v651.636364H20.945455z" fill="#FFFFFF" /><path d="M998.4 795.927273H20.945455v-651.636364h975.127272v651.636364zM23.272727 795.927273h972.8v-651.636364H23.272727v651.636364z" fill="#EFEFEF" /><path d="M20.945455 144.290909h975.127272v55.854546H20.945455zM20.945455 249.018182h975.127272v46.545454H20.945455zM20.945455 349.090909h975.127272v46.545455H20.945455zM20.945455 449.163636h975.127272v46.545455H20.945455zM20.945455 549.236364h975.127272v46.545454H20.945455zM20.945455 649.309091h975.127272v46.545454H20.945455zM20.945455 749.381818h975.127272v46.545455H20.945455z" fill="#B72343" /><path d="M20.945455 144.290909h390.981818v351.418182H20.945455z" fill="#00467B" /><path d="M90.763636 202.472727L93.090909 209.454545h6.981818l-4.654545 2.327273 2.327273 6.981818-6.981819-4.654545-4.654545 4.654545 2.327273-6.981818-6.981819-2.327273h6.981819zM155.927273 202.472727V209.454545H162.909091l-4.654546 2.327273 2.327273 6.981818-4.654545-4.654545-6.981818 4.654545 2.327272-6.981818-4.654545-2.327273h6.981818zM221.090909 202.472727l2.327273 6.981818h6.981818l-6.981818 2.327273 2.327273 6.981818-4.654546-4.654545-6.981818 4.654545 2.327273-6.981818-4.654546-2.327273h6.981818zM283.927273 202.472727l2.327272 6.981818h6.981819l-4.654546 2.327273 2.327273 6.981818-6.981818-4.654545-4.654546 4.654545 2.327273-6.981818-4.654545-2.327273h6.981818zM351.418182 202.472727l2.327273 6.981818h6.981818l-6.981818 2.327273 2.327272 6.981818-4.654545-4.654545-6.981818 4.654545 2.327272-6.981818-4.654545-2.327273h6.981818zM58.181818 167.563636l2.327273 6.981819h6.981818l-6.981818 4.654545 2.327273 6.981818-4.654546-4.654545-4.654545 4.654545v-6.981818l-4.654546-4.654545h6.981818zM123.345455 167.563636l2.327272 6.981819h4.654546l-4.654546 4.654545 2.327273 6.981818-4.654545-4.654545L116.363636 186.181818l2.327273-6.981818-4.654545-4.654545h6.981818zM188.509091 167.563636l2.327273 6.981819h6.981818l-6.981818 4.654545 2.327272 6.981818-4.654545-4.654545-6.981818 4.654545 2.327272-6.981818-4.654545-4.654545H186.181818zM253.672727 167.563636v6.981819h6.981818l-4.654545 4.654545 2.327273 6.981818-4.654546-4.654545-6.981818 4.654545 2.327273-6.981818-4.654546-4.654545h6.981819zM318.836364 167.563636l2.327272 6.981819h6.981819l-6.981819 4.654545 2.327273 6.981818-4.654545-4.654545-4.654546 4.654545v-6.981818l-4.654545-4.654545h6.981818zM384 167.563636l2.327273 6.981819h4.654545l-4.654545 4.654545 2.327272 6.981818-4.654545-4.654545-6.981818 4.654545 2.327273-6.981818-4.654546-4.654545h6.981818z" fill="#FFFFFF" /><path d="M90.763636 274.618182l2.327273 4.654545h6.981818l-4.654545 4.654546 2.327273 6.981818-6.981819-4.654546-4.654545 4.654546 2.327273-6.981818-6.981819-4.654546h6.981819zM155.927273 274.618182v4.654545H162.909091l-4.654546 4.654546 2.327273 6.981818-4.654545-4.654546-6.981818 4.654546 2.327272-6.981818-4.654545-4.654546h6.981818zM221.090909 274.618182l2.327273 4.654545h6.981818l-6.981818 4.654546 2.327273 6.981818-4.654546-4.654546-6.981818 4.654546 2.327273-6.981818-4.654546-4.654546h6.981818zM283.927273 274.618182l2.327272 4.654545h6.981819l-4.654546 4.654546 2.327273 6.981818-6.981818-4.654546-4.654546 4.654546 2.327273-6.981818-4.654545-4.654546h6.981818zM351.418182 274.618182l2.327273 4.654545h6.981818l-6.981818 4.654546 2.327272 6.981818-4.654545-4.654546-6.981818 4.654546 2.327272-6.981818-4.654545-4.654546h6.981818z" fill="#FFFFFF" /><path d="M58.181818 239.709091l2.327273 6.981818h6.981818l-6.981818 4.654546 2.327273 6.981818-4.654546-4.654546-4.654545 4.654546v-6.981818l-4.654546-4.654546h6.981818zM123.345455 239.709091l2.327272 6.981818h4.654546l-4.654546 4.654546 2.327273 6.981818-4.654545-4.654546-6.981819 4.654546 2.327273-6.981818-4.654545-4.654546h6.981818zM188.509091 239.709091l2.327273 6.981818h6.981818l-6.981818 4.654546 2.327272 6.981818-4.654545-4.654546-6.981818 4.654546 2.327272-6.981818-4.654545-4.654546H186.181818zM253.672727 239.709091v6.981818h6.981818l-4.654545 4.654546 2.327273 6.981818-4.654546-4.654546-6.981818 4.654546 2.327273-6.981818-4.654546-4.654546h6.981819zM318.836364 239.709091l2.327272 6.981818h6.981819l-6.981819 4.654546 2.327273 6.981818-4.654545-4.654546-4.654546 4.654546v-6.981818l-4.654545-4.654546h6.981818zM384 239.709091l2.327273 6.981818h4.654545l-4.654545 4.654546 2.327272 6.981818-4.654545-4.654546-6.981818 4.654546 2.327273-6.981818-4.654546-4.654546h6.981818z" fill="#FFFFFF" /><path d="M90.763636 346.763636l2.327273 6.981819h6.981818l-4.654545 4.654545 2.327273 6.981818-6.981819-4.654545-4.654545 4.654545 2.327273-6.981818-6.981819-4.654545h6.981819zM155.927273 346.763636v6.981819H162.909091l-4.654546 4.654545 2.327273 6.981818-4.654545-4.654545-6.981818 4.654545 2.327272-6.981818-4.654545-4.654545h6.981818zM221.090909 346.763636l2.327273 6.981819h6.981818l-6.981818 4.654545 2.327273 6.981818-4.654546-4.654545-6.981818 4.654545 2.327273-6.981818-4.654546-4.654545h6.981818zM283.927273 346.763636l2.327272 6.981819h6.981819l-4.654546 4.654545 2.327273 6.981818-6.981818-4.654545-4.654546 4.654545 2.327273-6.981818-4.654545-4.654545h6.981818zM351.418182 346.763636l2.327273 6.981819h6.981818l-6.981818 4.654545 2.327272 6.981818-4.654545-4.654545-6.981818 4.654545 2.327272-6.981818-4.654545-4.654545h6.981818z" fill="#FFFFFF" /><path d="M58.181818 314.181818l2.327273 6.981818h6.981818l-6.981818 2.327273 2.327273 6.981818-4.654546-2.327272-4.654545 2.327272v-6.981818l-4.654546-2.327273h6.981818zM123.345455 314.181818l2.327272 6.981818h4.654546l-4.654546 2.327273 2.327273 6.981818-4.654545-2.327272-6.981819 2.327272 2.327273-6.981818-4.654545-2.327273h6.981818zM188.509091 314.181818l2.327273 6.981818h6.981818l-6.981818 2.327273 2.327272 6.981818-4.654545-2.327272-6.981818 2.327272 2.327272-6.981818-4.654545-2.327273H186.181818zM253.672727 314.181818v6.981818h6.981818l-4.654545 2.327273 2.327273 6.981818-4.654546-2.327272-6.981818 2.327272 2.327273-6.981818-4.654546-2.327273h6.981819zM318.836364 314.181818l2.327272 6.981818h6.981819l-6.981819 2.327273 2.327273 6.981818-4.654545-2.327272-4.654546 2.327272v-6.981818l-4.654545-2.327273h6.981818zM384 314.181818l2.327273 6.981818h4.654545l-4.654545 2.327273 2.327272 6.981818-4.654545-2.327272-6.981818 2.327272 2.327273-6.981818-4.654546-2.327273h6.981818z" fill="#FFFFFF" /><path d="M90.763636 421.236364l2.327273 6.981818h6.981818l-4.654545 4.654545 2.327273 4.654546-6.981819-2.327273-4.654545 2.327273 2.327273-4.654546-6.981819-4.654545h6.981819zM155.927273 421.236364v6.981818H162.909091l-4.654546 4.654545 2.327273 4.654546-4.654545-2.327273-6.981818 2.327273 2.327272-4.654546-4.654545-4.654545h6.981818zM221.090909 421.236364l2.327273 6.981818h6.981818l-6.981818 4.654545 2.327273 4.654546-4.654546-2.327273-6.981818 2.327273 2.327273-4.654546-4.654546-4.654545h6.981818zM283.927273 421.236364l2.327272 6.981818h6.981819l-4.654546 4.654545 2.327273 4.654546-6.981818-2.327273-4.654546 2.327273 2.327273-4.654546-4.654545-4.654545h6.981818zM351.418182 421.236364l2.327273 6.981818h6.981818l-6.981818 4.654545 2.327272 4.654546-4.654545-2.327273-6.981818 2.327273 2.327272-4.654546-4.654545-4.654545h6.981818z" fill="#FFFFFF" /><path d="M58.181818 388.654545l2.327273 4.654546h6.981818l-6.981818 4.654545 2.327273 6.981819-4.654546-4.654546-4.654545 4.654546v-6.981819l-4.654546-4.654545h6.981818zM123.345455 388.654545l2.327272 4.654546h4.654546l-4.654546 4.654545 2.327273 6.981819-4.654545-4.654546-6.981819 4.654546 2.327273-6.981819-4.654545-4.654545h6.981818zM188.509091 388.654545l2.327273 4.654546h6.981818l-6.981818 4.654545 2.327272 6.981819-4.654545-4.654546-6.981818 4.654546 2.327272-6.981819-4.654545-4.654545H186.181818zM253.672727 388.654545v4.654546h6.981818l-4.654545 4.654545 2.327273 6.981819-4.654546-4.654546-6.981818 4.654546 2.327273-6.981819-4.654546-4.654545h6.981819zM318.836364 388.654545l2.327272 4.654546h6.981819l-6.981819 4.654545 2.327273 6.981819-4.654545-4.654546-4.654546 4.654546v-6.981819l-4.654545-4.654545h6.981818zM384 388.654545l2.327273 4.654546h4.654545l-4.654545 4.654545 2.327272 6.981819-4.654545-4.654546-6.981818 4.654546 2.327273-6.981819-4.654546-4.654545h6.981818z" fill="#FFFFFF" /><path d="M58.181818 456.145455l2.327273 6.981818h6.981818l-6.981818 4.654545 2.327273 6.981818-4.654546-4.654545-4.654545 4.654545v-6.981818l-4.654546-4.654545h6.981818zM123.345455 456.145455l2.327272 6.981818h4.654546l-4.654546 4.654545 2.327273 6.981818-4.654545-4.654545-6.981819 4.654545 2.327273-6.981818-4.654545-4.654545h6.981818zM188.509091 456.145455l2.327273 6.981818h6.981818l-6.981818 4.654545 2.327272 6.981818-4.654545-4.654545-6.981818 4.654545 2.327272-6.981818-4.654545-4.654545H186.181818zM253.672727 456.145455v6.981818h6.981818l-4.654545 4.654545 2.327273 6.981818-4.654546-4.654545-6.981818 4.654545 2.327273-6.981818-4.654546-4.654545h6.981819zM318.836364 456.145455l2.327272 6.981818h6.981819l-6.981819 4.654545 2.327273 6.981818-4.654545-4.654545-4.654546 4.654545v-6.981818l-4.654545-4.654545h6.981818zM384 456.145455l2.327273 6.981818h4.654545l-4.654545 4.654545 2.327272 6.981818-4.654545-4.654545-6.981818 4.654545 2.327273-6.981818-4.654546-4.654545h6.981818z" fill="#FFFFFF" /></svg>