<?xml version="1.0" encoding="UTF-8"?>
<svg width="225px" height="170px" viewBox="0 0 225 170" version="1.1" xmlns="http://www.w3.org/2000/svg" xmlns:xlink="http://www.w3.org/1999/xlink">
    <!-- Generator: Sketch 55 (78076) - https://sketchapp.com -->
    <title>编组 2</title>
    <desc>Created with Sketch.</desc>
    <g id="页面1" stroke="none" stroke-width="1" fill="none" fill-rule="evenodd">
        <g id="桌面端" transform="translate(-848.000000, -918.000000)" fill="#014885" fill-rule="nonzero">
            <g id="编组" transform="translate(360.000000, 847.000000)">
                <g id="编组-2" transform="translate(600.500000, 156.000000) rotate(6.000000) translate(-600.500000, -156.000000) translate(488.000000, 71.000000)">
                    <path d="M44.6608127,88.1930385 C39.0193014,86.8167722 36.9600742,83.5376724 38.488318,78.3508135 L44.3496318,56.5366975 L51.6411426,58.4850944 L50.4887854,62.7732426 L72.5502734,68.6684304 L74.9550098,59.7190053 L44.2935695,51.5256892 L46.0470489,45 L84,55.1414668 L78.0885516,77.1420241 L48.7355527,69.2986856 L46.2809285,78.434552 C45.4869235,80.8888278 46.3530433,82.3847909 48.8815113,82.9261354 L66.6427762,87.6718897 C69.5668883,88.7220686 71.502878,87.9716242 72.4556841,85.4286839 C72.5888003,84.9331493 72.9454234,84.0950258 73.5309868,82.9182541 C74.0545609,81.4594807 74.4808294,80.3743287 74.8065814,79.6620593 C77.2236665,81.1072868 79.4224309,82.3631174 81.4102837,83.4248718 C80.2349586,86.3081842 79.0616091,88.9262427 77.8971505,91.2785546 C76.1476226,94.8078846 72.7337709,95.8253069 67.6575716,94.3374714 L44.6608127,88.1930385 Z" id="路径"></path>
                    <path d="M85.6144562,101.165686 L85,92.9981249 C85.4745037,92.7248948 86.1695685,92.3791647 87.0859366,91.9552634 C87.7500932,91.4667534 89.2223156,90.7252344 91.4951853,89.7316924 L94.4544658,78.717655 L89.4008417,77.3670397 L91.1561837,70.8331883 L102.94855,73.9844597 L98.2339279,91.532102 C99.4517133,95.4594162 102.073228,97.8950612 106.102182,98.8370643 C112.555579,100.696164 120.730196,102.880526 130.623559,105.389657 C129.406021,106.933851 128.167959,108.800842 126.909375,111 C120.170633,109.199344 115.365016,107.915063 112.495988,107.148391 C108.908899,106.055224 105.637569,105.046886 102.675569,104.123624 C97.9315216,102.855866 94.7321458,100.331692 93.0727432,96.5555425 C92.438753,96.9207536 91.5678817,97.4196207 90.4618607,98.0590484 C87.9293613,99.5144677 86.3122411,100.551657 85.6144562,101.165686 Z M99.8569822,70.5574922 C98.854071,66.8225242 97.7255488,63.0540189 96.4751241,59.2495104 L103.0299,58 C104.473934,61.5872559 105.791615,65.1407283 106.986652,68.6611562 L99.8569822,70.5574922 Z M110.083907,88.4964847 C109.302794,86.4216122 108.144599,83.5110201 106.61155,79.7654484 C106.186252,78.8515574 105.901154,78.1751401 105.752795,77.7354564 L111.759629,75.5390112 C113.578024,79.226386 115.241878,82.7408957 116.752673,86.0771152 L110.083907,88.4964847 Z M106.63232,72.9679842 L108.237324,66.9941561 L125.084057,71.4960428 L127.040178,64.2157404 L134.153282,66.116515 L132.19716,73.3968174 L138,74.9476701 L136.394996,80.9214983 L130.592155,79.3706456 L126.830497,93.3714738 C125.607519,98.9159755 122.360173,101.049538 117.086235,99.7714227 C115.303447,99.4293917 112.543463,98.7576597 108.799607,97.7572131 C109.160368,94.9210934 109.262242,92.5473446 109.107948,90.6367061 C111.320485,91.3619499 113.550083,92.0238178 115.796248,92.6240366 C118.257534,93.4161084 119.681787,92.596171 120.068511,90.1639784 L123.479052,77.4698712 L106.63232,72.9679842 Z" id="形状"></path>
                    <path d="M144.634619,79.6073269 L146.136539,74.0563417 L148.565527,74.7009012 L149.566889,71 L155.919627,72.6855833 L154.918265,76.3864844 L161.271249,78.072312 L162.322716,74.1866224 L168.675454,75.8722056 L167.623987,79.7578953 L170.052975,80.4024548 L168.551056,85.9531954 L166.122068,85.3086359 L161.065399,103.997686 L164.242015,104.840477 L163.541036,107.431182 C164.548322,105.1883 165.536109,102.277149 166.504644,98.6979738 L172.062117,78.1588399 L190,82.9188524 L179.986873,119.926398 C179.119289,123.132574 177.092869,124.444914 173.913539,123.867817 C173.414462,123.735337 172.418777,123.471109 170.924262,123.074645 C169.145406,122.732688 167.884386,122.466505 167.137005,122.268029 C167.464046,119.578331 167.608438,117.565213 167.567959,116.234051 C169.062721,116.63076 170.370637,116.977849 171.491709,117.275319 C173.075574,117.828951 174.006591,117.347671 174.284267,115.834899 L175.786434,110.283669 L170.18083,108.796074 C168.020633,114.305994 164.884002,118.496976 160.770199,121.371707 C159.824372,119.930553 158.73909,118.517753 157.510897,117.135262 L153.63355,118.88293 C152.555673,115.950514 151.232206,112.956013 149.65698,109.894782 L154.145215,108.110939 L145.363242,105.780551 L148.722507,109.646687 C145.428403,111.945787 142.423823,113.925174 139.706545,115.58387 C138.734802,113.739408 137.501426,111.891035 136,110.038751 C138.7427,108.783363 141.301271,107.215595 143.681388,105.334224 L137.515495,103.698016 L139.017415,98.1470304 L142.006939,98.940203 L147.063607,80.251642 L144.634619,79.6073269 Z M149.160618,97.6657497 L148.359676,100.626275 L154.712661,102.312103 L155.513602,99.351333 L149.160618,97.6657497 Z M151.263305,89.894126 L150.462364,92.8546515 L156.815348,94.5404791 L157.61629,91.5797093 L151.263305,89.894126 Z M153.416345,81.937714 L152.615403,84.8982395 L158.968141,86.5838227 L159.76933,83.6232972 L153.416345,81.937714 Z M158.685529,114.273975 C159.956175,113.024697 161.058981,111.665672 161.992467,110.193475 L155.639729,108.507892 C156.666514,110.633203 157.680464,112.553927 158.685529,114.273975 Z M172.57082,100.704248 C172.370399,101.444379 172.170226,102.184755 171.969805,102.924642 L177.388317,104.362618 L178.840378,98.9966662 L173.421866,97.5586898 L172.57082,100.704248 Z M176.525916,86.0864093 L175.023997,91.6376388 L180.442509,93.0756152 L181.944428,87.5243856 L176.525916,86.0864093 Z" id="形状"></path>
                    <path d="M112.49998,33.5524217 C129.357091,33.5524217 144.308205,41.751236 153.629388,54.3978709 L160.150362,56.1547772 C150.415734,39.9293316 132.718561,29.0786018 112.49998,29.0786018 C102.731691,29.0786018 93.5539336,31.6142567 85.5760217,36.0618322 L92.0845557,37.8155499 C98.3389242,35.0755807 105.242122,33.5524217 112.49998,33.5524217 Z M146.096387,30.6424766 L149.667141,33.5526669 L150.767711,29.190938 L154.764595,26.8421826 L150.767711,24.4934273 L149.667141,20.1316983 L146.096387,23.0423793 L141.418234,22.6948243 L143.208855,26.8424281 L141.418234,30.9895412 L146.096387,30.6424766 Z M84.1434757,20.8812592 L80.4700311,18.310775 L79.6682642,22.8618566 L75.9079839,25.6812952 L79.9631644,27.6354026 L81.3115577,31.948567 L84.6198531,28.6044848 L89.2138542,28.4509424 L87.2034604,24.4303913 L88.6938154,20.0220601 L84.1434757,20.8812592 Z M118.532869,14.5931387 L115.810471,11.0214411 L113.670555,15.1121411 L109.236322,16.6487902 L112.508518,19.7495593 L112.490224,24.2712078 L116.652241,22.0965978 L121.075498,23.3541238 L120.37569,18.9094917 L123.127846,15.1658561 L118.532869,14.5931387 Z M168.308775,42.6805837 L164.451902,39.9960467 L163.903325,44.4840924 L160.268908,47.1450831 L164.475807,49.2311487 L166.085927,53.5607467 L169.233478,50.3626031 L173.86358,50.3768292 L171.602679,46.3138454 L172.853748,41.9930774 L168.308775,42.6805837 Z M218.402998,76.4824505 L25.0205307,24.3774121 C20.2738352,23.0987925 15.3951788,25.9314758 14.122645,30.7045314 L0.30527336,82.5593889 C-0.966284813,87.3324445 1.85051058,92.2386845 6.59696197,93.5177945 L199.97943,145.621852 C204.726125,146.900962 209.605269,144.068524 210.877315,139.295223 L224.694443,87.4403654 C225.966733,82.6673101 223.149694,77.7610701 218.402998,76.4824505 Z M219.821397,88.443296 L207.155574,135.97665 C206.201357,139.556441 202.54206,141.681015 198.982282,140.721989 L9.89720807,89.7756308 C6.33718652,88.8161142 4.22483383,85.1364957 5.17807572,81.5569492 L17.8448739,34.0226143 C18.7983596,30.4428227 22.4579008,28.3187393 26.0181662,29.2777656 L215.102752,80.224124 C218.662774,81.1833952 220.775614,84.8635043 219.821397,88.443296 Z M112.49998,4.47357431 C149.561036,4.47357431 180.736043,29.7906357 189.868675,64.1622769 L194.791725,65.4887253 C186.022779,27.9488645 152.507841,0 112.500224,0 C88.2420737,0 66.3716626,10.2760499 50.9561229,26.7342617 L55.8742945,28.0594836 C70.3658629,13.4867023 90.3861361,4.47357431 112.49998,4.47357431 Z M132.915649,132.183959 C126.661036,134.924174 119.757838,136.447088 112.49998,136.447088 C95.6431134,136.447088 80.6917549,128.248273 71.370328,115.601148 L64.8491102,113.843996 C74.5837384,130.069687 92.2809117,140.920662 112.49998,140.920662 C122.268269,140.920662 131.446271,138.385007 139.424183,133.937431 L132.915649,132.183959 Z M85.1823336,141.472531 L81.6401182,138.568718 L80.5488173,142.920636 L76.5838876,145.263505 L80.5488173,147.606864 L81.6401182,151.958537 L85.1823336,149.055215 L89.8217039,149.401543 L88.045718,145.26375 L89.8217039,141.125957 L85.1823336,141.472531 Z M112.486077,155.251847 L115.186278,158.815696 L117.308876,154.734317 L121.707008,153.201592 L118.461156,150.107936 L118.479938,145.597079 L114.351826,147.766293 L109.964182,146.511465 L110.658136,150.945796 L107.928664,154.680847 L112.486077,155.251847 Z M56.2467614,127.132516 L59.874349,130.076309 L60.7312422,125.648602 L64.5137193,123.256187 L60.498054,120.883885 L59.2079579,116.462064 L55.8694163,119.423271 L51.2890748,119.082829 L53.2411716,123.285375 L51.700569,127.496505 L56.2467614,127.132516 Z M112.49998,165.52618 C75.4391681,165.52618 44.2636729,140.208873 35.1312847,105.837232 L30.2082347,104.510784 C38.9769374,142.050645 72.4921192,170 112.49998,170 C136.75813,170 158.628785,159.72395 174.044325,143.265738 L169.126397,141.940762 C154.634341,156.513052 134.614068,165.52618 112.49998,165.52618 Z M144.661159,149.110892 L148.311187,151.679168 L149.098319,147.142068 L152.825182,144.33661 L148.797077,142.382502 L147.449903,138.079639 L144.173317,141.409496 L139.614441,141.55617 L141.617029,145.567646 L140.147163,149.96077 L144.661159,149.110892 Z" id="形状"></path>
                </g>
            </g>
        </g>
    </g>
</svg>