<?xml version="1.0" encoding="UTF-8"?>
<svg width="40px" height="40px" viewBox="0 0 40 40" version="1.1" xmlns="http://www.w3.org/2000/svg" xmlns:xlink="http://www.w3.org/1999/xlink">
    <!-- Generator: Sketch 55 (78076) - https://sketchapp.com -->
    <title>画板</title>
    <desc>Created with Sketch.</desc>
    <g id="画板" stroke="none" stroke-width="1" fill="none" fill-rule="evenodd">
        <g id="申请评级" transform="translate(5.000000, 5.000000)" stroke-width="3">
            <path d="M15,1.5 C7.55735537,1.5 1.5,7.55728704 1.5,14.9997549 C1.5,22.4424487 7.55739752,28.5 15,28.5 C22.4424066,28.5 28.5,22.4423383 28.5,14.9997549 C28.5,7.55730914 22.4426055,1.5 15,1.5 Z" id="Mask" stroke="#D9E9EE"></path>
            <path d="M21.3554574,7.59284722 L12.6099285,12.2953869 C12.4757649,12.3674978 12.36562,12.4774228 12.2935091,12.6118612 L7.59289314,21.3554115 C7.42652154,21.6647956 7.49137733,22.0363973 7.72749639,22.2725713 C7.77993065,22.3249506 7.84066426,22.3706795 7.90936743,22.4076143 C8.14295821,22.5332037 8.41221968,22.5267731 8.63184997,22.4144846 C8.63850044,22.4112968 17.3944723,17.7087571 17.3944723,17.7087571 C17.5286908,17.6366462 17.6388357,17.5265013 17.7109466,17.3922828 L22.3928753,8.67022287 C22.4031533,8.65257989 22.4128267,8.63477203 22.4216207,8.61652447 C22.5265991,8.39002385 22.5283579,8.13345873 22.4076602,7.90932151 C22.2045736,7.53101436 21.7335447,7.38954079 21.3554574,7.59284722 Z" id="Fill-4" stroke="#80C6E0" stroke-linecap="round" stroke-linejoin="round"></path>
            <path d="M15,12.5894087 L15,17.4105913" id="Line" stroke="#80C6E0" stroke-linecap="round" stroke-linejoin="round" transform="translate(15.000000, 15.000000) rotate(-45.000000) translate(-15.000000, -15.000000) "></path>
        </g>
    </g>
</svg>