<?xml version="1.0" encoding="UTF-8"?>
<svg width="40px" height="40px" viewBox="0 0 40 40" version="1.1" xmlns="http://www.w3.org/2000/svg" xmlns:xlink="http://www.w3.org/1999/xlink">
    <!-- Generator: Sketch 55.2 (78181) - https://sketchapp.com -->
    <title>tab-icon</title>
    <desc>Created with Sketch.</desc>
    <g id="tab-icon" stroke="none" stroke-width="1" fill="none" fill-rule="evenodd">
        <g id="社区" transform="translate(5.000000, 5.000000)">
            <path d="M24.2045029,5.44621456 C21.6862803,2.92806999 18.3547975,1.54695371 14.7974604,1.54695371 C11.2400681,1.54695371 7.90864867,2.92805421 5.39042558,5.44620689 C0.540602041,10.2961006 0.184173273,18.0782886 4.55095796,23.3354043 L5.17505351,24.0867449 L4.74036195,24.9614169 C4.0660758,26.3181933 3.17822791,27.4222359 2.00221497,28.100862 C2.18763984,28.1181324 2.38576384,28.1277884 2.59560086,28.1277884 C4.03127793,28.1277884 5.50589636,27.7074021 6.92762686,26.6830384 L7.68913023,26.1343716 L8.51554846,26.5792936 C10.4551891,27.6235454 12.6086604,28.1589344 14.7913564,28.1589344 C18.3059298,28.1589344 21.6931046,26.7774199 24.2105921,24.2600014 C26.7288521,21.741671 28.1098678,18.4105297 28.1098678,14.8529441 C28.1098678,11.2997531 26.7252809,7.96707067 24.2045029,5.44621456 Z M1.69557813,28.2648127 C1.69325871,28.2659575 1.69093823,28.2671008 1.68861669,28.2682424 C1.69532728,28.2649281 1.70171011,28.2606372 1.70764771,28.255553 Z M24.2045029,5.44621456 C24.204498,5.44620962 24.204493,5.44620467 24.2044881,5.44619973 L24.2045178,5.44622939 C24.2045128,5.44622445 24.2045079,5.4462195 24.2045029,5.44621456 Z" id="Fill-1" stroke="#D9E9EE" stroke-width="3"></path>
            <path d="M14.7974604,15.8922643 C14.2233731,15.8922643 13.7581401,15.4270314 13.7581401,14.8529441 C13.7581401,14.2791698 14.2233731,13.8139368 14.7974604,13.8139368 C15.3715477,13.8139368 15.8367807,14.2791698 15.8367807,14.8529441 C15.8367807,15.4270314 15.3715477,15.8922643 14.7974604,15.8922643 Z" id="Fill-3" stroke="#80C6E0" fill="#80C6E0"></path>
            <path d="M21.1958419,14.8529441 C21.1958419,15.4270314 20.7302177,15.8922643 20.1564434,15.8922643 C19.5823561,15.8922643 19.1171231,15.4270314 19.1171231,14.8529441 C19.1171231,14.2791698 19.5823561,13.8139368 20.1564434,13.8139368 C20.7302177,13.8139368 21.1958419,14.2791698 21.1958419,14.8529441 L21.1958419,14.8529441 Z" id="Fill-4" stroke="#80C6E0" fill="#80C6E0"></path>
            <path d="M9.4383992,15.8922643 C8.86462491,15.8922643 8.39907892,15.4270314 8.39907892,14.8529441 C8.39907892,14.2791698 8.86462491,13.8139368 9.4383992,13.8139368 C10.0124865,13.8139368 10.4777977,14.2791698 10.4777977,14.8529441 C10.4777977,15.4270314 10.0124865,15.8922643 9.4383992,15.8922643 Z" id="Fill-5" stroke="#80C6E0" fill="#80C6E0"></path>
        </g>
    </g>
</svg>