<?xml version="1.0" encoding="utf-8"?>
<!-- Generator: Adobe Illustrator 19.0.0, SVG Export Plug-In . SVG Version: 6.00 Build 0)  -->
<svg version="1.1" id="图层_1" xmlns="http://www.w3.org/2000/svg" xmlns:xlink="http://www.w3.org/1999/xlink" x="0px" y="0px"
	 viewBox="0 0 1024 1024" style="enable-background:new 0 0 1024 1024;" xml:space="preserve">
<style type="text/css">
	.st0{fill-rule:evenodd;clip-rule:evenodd;fill:#E5ECF2;}
	.st1{fill-rule:evenodd;clip-rule:evenodd;fill:#CCDAE7;}
</style>
<circle class="st0" cx="512" cy="512" r="450.5"/>
<path class="st1" d="M577,552.6l158.3-132.7c1-0.8,2.5-0.5,3,0.7c12.4,26.8,19.3,56.6,19.3,88.2c0,112.3-87.7,203.8-197.3,207.8
	c-0.6,0.1-1.2,0.2-1.8,0.2H359.7c-6.3,0-11.5-5.2-11.5-11.6v-83.7c0-1.4,0.7-2.7,1.8-3.6l118.9-85.5c2.4-1.8,5.6-2,8.3-0.6
	l49.3,26.1C542.9,566.6,562.8,564.5,577,552.6z"/>
<path class="st1" d="M494.8,504.9c-15.3-8.1-33.8-6.8-47.9,3.3L350,577.8c-0.8,0.6-1.8,0-1.8-0.9V318.6c0-6.3,5.1-11.4,11.4-11.4
	h199.1c0.6,0,1.2,0.1,1.7,0.2c62.9,2.3,118.6,33.4,154.6,80.7c1.1,1.5,2,2.7,2.7,3.7L552.8,530c-2.5,2.1-5.9,2.4-8.7,0.9
	L494.8,504.9z"/>
</svg>
