<?xml version="1.0" encoding="UTF-8"?>
<svg width="32px" height="24px" viewBox="0 0 32 24" version="1.1" xmlns="http://www.w3.org/2000/svg" xmlns:xlink="http://www.w3.org/1999/xlink">
    <!-- Generator: Sketch 55 (78076) - https://sketchapp.com -->
    <title>画板</title>
    <desc>Created with Sketch.</desc>
    <defs>
        <rect id="path-1" x="0" y="7.10542736e-15" width="30" height="21.4285714" rx="2"></rect>
        <rect id="path-3" x="0" y="7.10542736e-15" width="30" height="21.4285714" rx="2"></rect>
    </defs>
    <g id="画板" stroke="none" stroke-width="1" fill="none" fill-rule="evenodd">
        <g id="us" transform="translate(1.000000, 1.000000)">
            <mask id="mask-2" fill="white">
                <use xlink:href="#path-1"></use>
            </mask>
            <use id="background" fill="#FFFFFF" xlink:href="#path-1"></use>
            <rect id="rectangle" fill="#435DB0" mask="url(#mask-2)" x="1.59872116e-14" y="0" width="12.8571429" height="10"></rect>
            <path d="M1.42857143,1.42857143 L1.42857143,2.85714286 L2.85714286,2.85714286 L2.85714286,1.42857143 L1.42857143,1.42857143 L1.42857143,1.42857143 Z M4.28571429,1.42857143 L4.28571429,2.85714286 L5.71428571,2.85714286 L5.71428571,1.42857143 L4.28571429,1.42857143 L4.28571429,1.42857143 Z M7.14285714,1.42857143 L7.14285714,2.85714286 L8.57142857,2.85714286 L8.57142857,1.42857143 L7.14285714,1.42857143 L7.14285714,1.42857143 Z M10,1.42857143 L10,2.85714286 L11.4285714,2.85714286 L11.4285714,1.42857143 L10,1.42857143 L10,1.42857143 Z M8.57142857,2.85714286 L8.57142857,4.28571429 L10,4.28571429 L10,2.85714286 L8.57142857,2.85714286 L8.57142857,2.85714286 Z M5.71428571,2.85714286 L5.71428571,4.28571429 L7.14285714,4.28571429 L7.14285714,2.85714286 L5.71428571,2.85714286 L5.71428571,2.85714286 Z M2.85714286,2.85714286 L2.85714286,4.28571429 L4.28571429,4.28571429 L4.28571429,2.85714286 L2.85714286,2.85714286 L2.85714286,2.85714286 Z M1.42857143,4.28571429 L1.42857143,5.71428571 L2.85714286,5.71428571 L2.85714286,4.28571429 L1.42857143,4.28571429 L1.42857143,4.28571429 Z M4.28571429,4.28571429 L4.28571429,5.71428571 L5.71428571,5.71428571 L5.71428571,4.28571429 L4.28571429,4.28571429 L4.28571429,4.28571429 Z M7.14285714,4.28571429 L7.14285714,5.71428571 L8.57142857,5.71428571 L8.57142857,4.28571429 L7.14285714,4.28571429 L7.14285714,4.28571429 Z M10,4.28571429 L10,5.71428571 L11.4285714,5.71428571 L11.4285714,4.28571429 L10,4.28571429 L10,4.28571429 Z M1.42857143,7.14285714 L1.42857143,8.57142857 L2.85714286,8.57142857 L2.85714286,7.14285714 L1.42857143,7.14285714 L1.42857143,7.14285714 Z M4.28571429,7.14285714 L4.28571429,8.57142857 L5.71428571,8.57142857 L5.71428571,7.14285714 L4.28571429,7.14285714 L4.28571429,7.14285714 Z M7.14285714,7.14285714 L7.14285714,8.57142857 L8.57142857,8.57142857 L8.57142857,7.14285714 L7.14285714,7.14285714 L7.14285714,7.14285714 Z M10,7.14285714 L10,8.57142857 L11.4285714,8.57142857 L11.4285714,7.14285714 L10,7.14285714 L10,7.14285714 Z M8.57142857,5.71428571 L8.57142857,7.14285714 L10,7.14285714 L10,5.71428571 L8.57142857,5.71428571 L8.57142857,5.71428571 Z M5.71428571,5.71428571 L5.71428571,7.14285714 L7.14285714,7.14285714 L7.14285714,5.71428571 L5.71428571,5.71428571 L5.71428571,5.71428571 Z M2.85714286,5.71428571 L2.85714286,7.14285714 L4.28571429,7.14285714 L4.28571429,5.71428571 L2.85714286,5.71428571 L2.85714286,5.71428571 Z" id="stars" fill="#A7B6E6" mask="url(#mask-2)"></path>
            <path d="M12.8571429,7.10542736e-15 L12.8571429,1.42857143 L30,1.42857143 L30,7.10542736e-15 L12.8571429,7.10542736e-15 L12.8571429,7.10542736e-15 Z M12.8571429,2.85714286 L12.8571429,4.28571429 L30,4.28571429 L30,2.85714286 L12.8571429,2.85714286 L12.8571429,2.85714286 Z M12.8571429,5.71428571 L12.8571429,7.14285714 L30,7.14285714 L30,5.71428571 L12.8571429,5.71428571 L12.8571429,5.71428571 Z M12.8571429,8.57142857 L12.8571429,10 L30,10 L30,8.57142857 L12.8571429,8.57142857 L12.8571429,8.57142857 Z M0,11.4285714 L0,12.8571429 L30,12.8571429 L30,11.4285714 L0,11.4285714 L0,11.4285714 Z M0,14.2857143 L0,15.7142857 L30,15.7142857 L30,14.2857143 L0,14.2857143 L0,14.2857143 Z M0,17.1428571 L0,18.5714286 L30,18.5714286 L30,17.1428571 L0,17.1428571 L0,17.1428571 Z M0,20 L0,21.4285714 L30,21.4285714 L30,20 L0,20 L0,20 Z" id="stripe" fill="#ED4C49" mask="url(#mask-2)"></path>
        </g>
        <g id="KR" transform="translate(1.000000, 1.000000)">
            <mask id="mask-4" fill="white">
                <use xlink:href="#path-3"></use>
            </mask>
            <use id="background" fill="#FFFFFF" xlink:href="#path-3"></use>
            <path d="M20,10.7142857 C20,13.4757095 17.7614237,15.7142857 15,15.7142857 C12.2385763,15.7142857 10,13.4757095 10,10.7142857 C10,9.1140817 13.3580302,8.44117212 16.1822335,8.69555699 C16.4824445,8.61519272 16.8058364,8.57142857 17.1428571,8.57142857 C18.7208136,8.57142857 20,9.53081839 20,10.7142857 L20,10.7142857 Z" id="circle" fill="#0048AB" mask="url(#mask-4)"></path>
            <path d="M14.2857143,10.7142857 C14.2857143,9.53081839 15.5649007,8.57142857 17.1428571,8.57142857 C18.7208136,8.57142857 20,9.53081839 20,10.7142857 C20,7.95286197 17.7614237,5.71428571 15,5.71428571 C13.0045383,5.71428571 11.2820974,6.88322666 10.4800876,8.57369818 C10.2892144,8.9150344 10.1399219,9.48587639 10.0746792,9.84854343 C10.0255922,10.1297487 10,10.4190285 10,10.7142857 L10.5456382,10.7142857 C10.93801,11.1526781 11.5082144,11.4285714 12.1428571,11.4285714 C12.7774999,11.4285714 13.3477043,11.1526781 13.7400761,10.7142857 C13.7400761,10.7142857 13.9219801,10.6989528 14.0835423,10.7142857 C14.1372022,10.7193783 14.2042644,10.7004902 14.2460522,10.7142857 C14.2700514,10.7222087 14.2857143,10.7485809 14.2857143,10.7142857 Z" id="circle" fill="#CD0027" mask="url(#mask-4)"></path>
            <path d="M21.4285714,7.14285714 L24.2857143,7.14285714 L21.4285714,4.28571429 L20,4.28571429 L21.4285714,7.14285714 L21.4285714,7.14285714 Z M8.57142857,7.14285714 L5.71428571,7.14285714 L8.57142857,4.28571429 L10,4.28571429 L8.57142857,7.14285714 L8.57142857,7.14285714 Z M21.4285714,14.2857143 L24.2857143,14.2857143 L21.4285714,17.1428571 L20,17.1428571 L21.4285714,14.2857143 L21.4285714,14.2857143 Z M8.57142857,14.2857143 L5.71428571,14.2857143 L8.57142857,17.1428571 L10,17.1428571 L8.57142857,14.2857143 L8.57142857,14.2857143 Z" id="angles" fill="#252526" mask="url(#mask-4)"></path>
        </g>
    </g>
</svg>