<?xml version="1.0" encoding="UTF-8"?>
<svg width="105px" height="21px" viewBox="0 0 105 21" version="1.1" xmlns="http://www.w3.org/2000/svg" xmlns:xlink="http://www.w3.org/1999/xlink">
    <!-- Generator: Sketch 49.1 (51147) - http://www.bohemiancoding.com/sketch -->
    <title>Group 6@2x</title>
    <desc>Created with Sketch.</desc>
    <defs></defs>
    <g id="Page-1" stroke="none" stroke-width="1" fill="none" fill-rule="evenodd">
        <g id="Home" transform="translate(-360.000000, -2642.000000)" fill="#DAE9F1">
            <g id="Group-15" transform="translate(360.000000, 2642.000000)">
                <g id="Group-6">
                    <path d="M29.204,3.644 C29.7200026,3.644 30.2719971,3.65299991 30.86,3.671 C31.4480029,3.68900009 32.0299971,3.76099937 32.606,3.887 C33.1820029,4.01300063 33.7309974,4.21099865 34.253,4.481 C34.7750026,4.75100135 35.233998,5.13499751 35.63,5.633 C36.026002,6.13100249 36.3439988,6.76399616 36.584,7.532 C36.8240012,8.30000384 36.944,9.24199442 36.944,10.358 C36.944,11.4620055 36.8240012,12.3949962 36.584,13.157 C36.3439988,13.9190038 36.026002,14.5459975 35.63,15.038 C35.233998,15.5300025 34.7750026,15.9079987 34.253,16.172 C33.7309974,16.4360013 33.1820029,16.6309994 32.606,16.757 C32.0299971,16.8830006 31.4480029,16.9549999 30.86,16.973 C30.2719971,16.9910001 29.7200026,17 29.204,17 L27.08,17 L27.08,3.644 L29.204,3.644 Z M30.338,15.038 C30.8420025,15.038 31.3669973,14.9900005 31.913,14.894 C32.4590027,14.7979995 32.9599977,14.5850016 33.416,14.255 C33.8720023,13.9249983 34.2469985,13.4510031 34.541,12.833 C34.8350015,12.2149969 34.982,11.3840052 34.982,10.34 C34.982,9.64399652 34.9130007,9.04100255 34.775,8.531 C34.6369993,8.02099745 34.4510012,7.59200174 34.217,7.244 C33.9829988,6.89599826 33.7130015,6.61400108 33.407,6.398 C33.1009985,6.18199892 32.7770017,6.0140006 32.435,5.894 C32.0929983,5.7739994 31.7420018,5.69600018 31.382,5.66 C31.0219982,5.62399982 30.6740017,5.606 30.338,5.606 L29.042,5.606 L29.042,15.038 L30.338,15.038 Z M43.0255,3.644 C43.2655012,3.644 43.5444984,3.65299991 43.8625,3.671 C44.1805016,3.68900009 44.5044984,3.73699961 44.8345,3.815 C45.1645017,3.89300039 45.4884984,4.0219991 45.8065,4.202 C46.1245016,4.3820009 46.4094987,4.63399838 46.6615,4.958 C46.9135013,5.28200162 47.1144993,5.69899745 47.2645,6.209 C47.4145008,6.71900255 47.4895,7.33999634 47.4895,8.072 C47.4895,8.80400366 47.4145008,9.42199748 47.2645,9.926 C47.1144993,10.4300025 46.9165012,10.8439984 46.6705,11.168 C46.4244988,11.4920016 46.1425016,11.7439991 45.8245,11.924 C45.5064984,12.1040009 45.1825017,12.2329996 44.8525,12.311 C44.5224984,12.3890004 44.2015016,12.4369999 43.8895,12.455 C43.5774984,12.4730001 43.2955013,12.482 43.0435,12.482 L40.9735,12.482 L40.9735,17 L39.0115,17 L39.0115,3.644 L43.0255,3.644 Z M42.2695,10.52 C42.6295018,10.52 43.0044981,10.5140001 43.3945,10.502 C43.784502,10.4899999 44.1354984,10.4120007 44.4475,10.268 C44.7595016,10.1239993 45.017499,9.88400168 45.2215,9.548 C45.425501,9.21199832 45.5275,8.72000324 45.5275,8.072 C45.5275,7.42399676 45.425501,6.93200168 45.2215,6.596 C45.017499,6.25999832 44.7595016,6.02000072 44.4475,5.876 C44.1354984,5.73199928 43.7875019,5.65100009 43.4035,5.633 C43.0194981,5.61499991 42.6475018,5.606 42.2875,5.606 L40.9735,5.606 L40.9735,10.52 L42.2695,10.52 Z M56.325,17 L54.255,12.464 C54.1349994,12.4760001 54.0180006,12.482 53.904,12.482 L51.519,12.482 L51.519,17 L49.557,17 L49.557,3.644 L53.571,3.644 C53.8110012,3.644 54.0899984,3.65299991 54.408,3.671 C54.7260016,3.68900009 55.0499984,3.73699961 55.38,3.815 C55.7100017,3.89300039 56.0339984,4.0219991 56.352,4.202 C56.6700016,4.3820009 56.9549988,4.63399838 57.207,4.958 C57.4590013,5.28200162 57.6599993,5.69899745 57.81,6.209 C57.9600008,6.71900255 58.035,7.33999634 58.035,8.072 C58.035,8.66000294 57.9870005,9.17299781 57.891,9.611 C57.7949995,10.0490022 57.6600009,10.4239984 57.486,10.736 C57.3119991,11.0480016 57.1140011,11.3089989 56.892,11.519 C56.6699989,11.729001 56.4330013,11.8999993 56.181,12.032 L58.485,17 L56.325,17 Z M52.815,10.52 C53.1750018,10.52 53.5499981,10.5140001 53.94,10.502 C54.330002,10.4899999 54.6809985,10.4120007 54.993,10.268 C55.3050016,10.1239993 55.562999,9.88400168 55.767,9.548 C55.971001,9.21199832 56.073,8.72000324 56.073,8.072 C56.073,7.42399676 55.971001,6.93200168 55.767,6.596 C55.562999,6.25999832 55.3050016,6.02000072 54.993,5.876 C54.6809985,5.73199928 54.3330019,5.65100009 53.949,5.633 C53.5649981,5.61499991 53.1930018,5.606 52.833,5.606 L51.519,5.606 L51.519,10.52 L52.815,10.52 Z M70.3625,7.946 L70.3625,17 L68.4005,17 L68.4005,15.704 C67.9804979,16.2440027 67.470503,16.6759984 66.8705,17 C66.270497,17.3240016 65.6225035,17.486 64.9265,17.486 C64.3024969,17.486 63.7145028,17.3540013 63.1625,17.09 C62.6104973,16.8259987 62.1275021,16.4660023 61.7135,16.01 C61.2994979,15.5539977 60.9725012,15.023003 60.7325,14.417 C60.4924988,13.810997 60.3725,13.1600035 60.3725,12.464 C60.3725,11.7679965 60.4924988,11.117003 60.7325,10.511 C60.9725012,9.90499697 61.2994979,9.37400228 61.7135,8.918 C62.1275021,8.46199772 62.6104973,8.10200132 63.1625,7.838 C63.7145028,7.57399868 64.3024969,7.442 64.9265,7.442 C65.6225035,7.442 66.270497,7.60099841 66.8705,7.919 C67.470503,8.23700159 67.9804979,8.67199724 68.4005,9.224 L68.4005,7.946 L70.3625,7.946 Z M65.4485,15.47 C65.8565021,15.47 66.2404982,15.3920008 66.6005,15.236 C66.9605018,15.0799992 67.2724987,14.8670013 67.5365,14.597 C67.8005013,14.3269986 68.0104992,14.0120018 68.1665,13.652 C68.3225008,13.2919982 68.4005,12.9020021 68.4005,12.482 C68.4005,12.073998 68.3225008,11.6870018 68.1665,11.321 C68.0104992,10.9549982 67.8005013,10.6370013 67.5365,10.367 C67.2724987,10.0969986 66.9605018,9.88400078 66.6005,9.728 C66.2404982,9.57199922 65.8565021,9.494 65.4485,9.494 C65.040498,9.494 64.6565018,9.57199922 64.2965,9.728 C63.9364982,9.88400078 63.6215014,10.0969986 63.3515,10.367 C63.0814987,10.6370013 62.8685008,10.9549982 62.7125,11.321 C62.5564992,11.6870018 62.4785,12.073998 62.4785,12.482 C62.4785,12.9020021 62.5564992,13.2919982 62.7125,13.652 C62.8685008,14.0120018 63.0814987,14.3269986 63.3515,14.597 C63.6215014,14.8670013 63.9364982,15.0799992 64.2965,15.236 C64.6565018,15.3920008 65.040498,15.47 65.4485,15.47 Z M78.622,7.694 L78.622,9.656 L76.48,9.656 L76.48,17 L74.482,17 L74.482,9.656 L72.97,9.656 L72.97,7.694 L74.482,7.694 L74.482,4.346 L76.48,3.644 L76.48,7.694 L78.622,7.694 Z M82.8315,5.804 L80.8695,5.804 L80.8695,3.644 L82.8315,3.644 L82.8315,5.804 Z M80.8695,7.406 L82.8315,7.406 L82.8315,17 L80.8695,17 L80.8695,7.406 Z M85.439,17 L85.439,7.406 L87.383,7.406 L87.383,8.738 C87.5390008,8.4979988 87.7489987,8.27600102 88.013,8.072 C88.2410012,7.90399916 88.5319983,7.75100069 88.886,7.613 C89.2400018,7.47499931 89.6869973,7.406 90.227,7.406 C90.8990034,7.406 91.435998,7.51099895 91.838,7.721 C92.240002,7.93100105 92.545999,8.21299823 92.756,8.567 C92.9660011,8.92100177 93.1039997,9.32299775 93.17,9.773 C93.2360004,10.2230023 93.269,10.6879976 93.269,11.168 L93.269,17 L91.307,17 L91.307,11.042 C91.307,10.6699981 91.1810013,10.3340015 90.929,10.034 C90.6769988,9.7339985 90.3110024,9.584 89.831,9.584 C89.5069984,9.584 89.1980015,9.63199952 88.904,9.728 C88.6099986,9.82400048 88.3520011,9.96799904 88.13,10.16 C87.9079989,10.352001 87.7280007,10.5919986 87.59,10.88 C87.4519993,11.1680014 87.383,11.5039981 87.383,11.888 L87.383,17 L85.439,17 Z M104.6425,7.946 L104.6425,17.018 C104.6425,17.4380021 104.582501,17.8759977 104.4625,18.332 C104.342499,18.7880023 104.108502,19.2079981 103.7605,19.592 C103.412498,19.9760019 102.926503,20.2939987 102.3025,20.546 C101.678497,20.7980013 100.856505,20.924 99.8365,20.924 C99.1404966,20.924 98.5705023,20.8850004 98.1265,20.807 C97.6824978,20.7289996 97.3225014,20.6420005 97.0465,20.546 C96.7344985,20.4259994 96.4885009,20.2940007 96.3085,20.15 L96.3085,18.206 C96.5605013,18.3380007 96.8604983,18.4579995 97.2085,18.566 C97.5085015,18.6620005 97.8774979,18.7459996 98.3155,18.818 C98.7535022,18.8900004 99.2604972,18.926 99.8365,18.926 C100.412503,18.926 100.883498,18.8660006 101.2495,18.746 C101.615502,18.6259994 101.906499,18.4730009 102.1225,18.287 C102.338501,18.1009991 102.4855,17.8910012 102.5635,17.657 C102.6415,17.4229988 102.6805,17.1920011 102.6805,16.964 L102.6805,15.866 C102.296498,16.2140017 101.867502,16.489999 101.3935,16.694 C100.919498,16.898001 100.412503,17 99.8725,17 C99.272497,17 98.7085027,16.8740013 98.1805,16.622 C97.6524974,16.3699987 97.190502,16.0280022 96.7945,15.596 C96.3984981,15.1639978 96.0865012,14.6570029 95.8585,14.075 C95.6304989,13.4929971 95.5165,12.8720033 95.5165,12.212 C95.5165,11.5519967 95.6304989,10.9280029 95.8585,10.34 C96.0865012,9.75199706 96.3984981,9.24200216 96.7945,8.81 C97.190502,8.37799784 97.6524974,8.03600126 98.1805,7.784 C98.7085027,7.53199874 99.272497,7.406 99.8725,7.406 C100.412503,7.406 100.919498,7.50799898 101.3935,7.712 C101.867502,7.91600102 102.296498,8.1979982 102.6805,8.558 L102.6805,7.946 L104.6425,7.946 Z M100.1245,15.002 C100.460502,15.002 100.781499,14.9330007 101.0875,14.795 C101.393502,14.6569993 101.663499,14.4650012 101.8975,14.219 C102.131501,13.9729988 102.317499,13.6880016 102.4555,13.364 C102.593501,13.0399984 102.6685,12.6920019 102.6805,12.32 L102.6805,12.05 C102.6685,11.6779981 102.593501,11.3300016 102.4555,11.006 C102.317499,10.6819984 102.131501,10.3970012 101.8975,10.151 C101.663499,9.90499877 101.393502,9.71300069 101.0875,9.575 C100.781499,9.43699931 100.460502,9.368 100.1245,9.368 C99.7764983,9.368 99.4465016,9.44299925 99.1345,9.593 C98.8224985,9.74300075 98.5495012,9.94399874 98.3155,10.196 C98.0814989,10.4480013 97.8985007,10.7449983 97.7665,11.087 C97.6344994,11.4290017 97.5685,11.7919981 97.5685,12.176 C97.5685,12.572002 97.6344994,12.9409983 97.7665,13.283 C97.8985007,13.6250017 98.0814989,13.9219987 98.3155,14.174 C98.5495012,14.4260013 98.8224985,14.6269992 99.1345,14.777 C99.4465016,14.9270007 99.7764983,15.002 100.1245,15.002 Z" id="DPRating"></path>
                    <path d="M7.15842152,9.62547796 C6.41170818,9.23189231 5.50668106,9.29389854 4.82065467,9.78599055 L0.0897111433,13.1791826 C0.0523315003,13.206008 0,13.1791826 0,13.1330078 L0,0.55541752 C0,0.248904447 0.248904447,0 0.55541752,0 L10.2780826,0 C10.3071067,0 10.3356912,0.00307832354 10.3633961,0.00747592861 C13.4364425,0.118735337 16.1559215,1.63415004 17.9154033,3.93981438 C17.9708131,4.01281462 18.0121506,4.06954373 18.0477712,4.12055595 L9.99399727,10.850211 C9.87394265,10.9513559 9.70683366,10.9693861 9.56786934,10.8955063 L7.15842152,9.62547796 Z M11.1766452,11.9510697 L18.9085144,5.48966861 C18.9560086,5.45009017 19.0298883,5.46592154 19.0558342,5.52221089 C19.6600651,6.82610079 20,8.28038879 20,9.81647223 C20,15.2879725 15.7180519,19.7453849 10.363528,19.9393193 C10.3353834,19.9437169 10.3072387,19.9467953 10.2777747,19.9467953 L0.563025376,19.9467953 C0.25343398,19.9467953 0.000131928152,19.6934932 0.000131928152,19.3839018 L0.000131928152,15.3073219 C0.000131928152,15.2387193 0.0331139661,15.1740745 0.0889635505,15.1340563 L5.89512152,10.969964 C6.01385685,10.8842107 6.16821279,10.8732167 6.29882166,10.9426989 L8.70782972,12.2127272 C9.50775408,12.6340178 10.4831429,12.5306741 11.1766452,11.9510697 Z" id="Combined-Shape"></path>
                </g>
            </g>
        </g>
    </g>
</svg>