<svg xmlns="http://www.w3.org/2000/svg" viewBox="0 0 356.75 41.52"><defs><style>.cls-1{fill:#d9e9ee;}</style></defs><title>资源 8</title><g id="图层_2" data-name="图层 2"><g id="图层_1-2" data-name="图层 1"><path class="cls-1" d="M14.67,19.72l4.94,2.61a.78.78,0,0,0,.87-.1L37,8.44l-.27-.37A20.36,20.36,0,0,0,21.24,0l-.18,0H1.14A1.14,1.14,0,0,0,0,1.14V26.91a.12.12,0,0,0,.18.1l9.7-7A4.57,4.57,0,0,1,14.67,19.72Z"/><path class="cls-1" d="M22.9,25.13a4.57,4.57,0,0,1-5.06.54l-4.93-2.6a.78.78,0,0,0-.83.05L.18,31.66A.44.44,0,0,0,0,32v8.35a1.16,1.16,0,0,0,1.15,1.16H21.06l.18,0A20.81,20.81,0,0,0,39.05,12a.19.19,0,0,0-.3-.07Z"/><path class="cls-1" d="M224.59,40.12V2.33A1.43,1.43,0,0,1,226,.91h3.35V38.7A1.43,1.43,0,0,1,228,40.12Z"/><path class="cls-1" d="M258.82,40.12V2.33A1.42,1.42,0,0,1,260.24.91h3.35V38.7a1.42,1.42,0,0,1-1.42,1.42Z"/><path class="cls-1" d="M356.75,28.53h-8.28a1.43,1.43,0,0,1-1.42-1.43V23.75h8.28a1.42,1.42,0,0,1,1.42,1.42Z"/><path class="cls-1" d="M210.21.91h32.12a1.42,1.42,0,0,1,1.42,1.42V5.69H211.63a1.43,1.43,0,0,1-1.42-1.43Z"/><path class="cls-1" d="M309.29,32.17V2.33A1.42,1.42,0,0,1,310.71.91h3.38V40.12h-4a1.44,1.44,0,0,1-1.16-.6L287,8.34V38.7a1.43,1.43,0,0,1-1.43,1.42h-3.36V.91h4a1.42,1.42,0,0,1,1.16.6S307.11,29,309.29,32.17Z"/><path class="cls-1" d="M352.2,25.81v9.76H346a15.06,15.06,0,0,1,0-30.11h6.16L356.75.91H346a19.61,19.61,0,0,0,0,39.21h10.71V24.93Z"/><path class="cls-1" d="M191.23,7h-.11c-1.75,4.88-12.51,32.22-12.51,32.22a1.44,1.44,0,0,1-1.33.9h-4.16l16-39.21h4.14l16,39.21H205a1.44,1.44,0,0,1-1.33-.9S192.9,11.82,191.23,7Z"/><path class="cls-1" d="M70.83.91H60.11V40.12H70.83a19.61,19.61,0,0,0,0-39.21Zm0,34.66H64.67V5.46h6.16a15.06,15.06,0,0,1,0,30.11Z"/><path class="cls-1" d="M116.31.91H102V5.46h0V19.62h0v20.5h4.78V24.17h9.49a11.63,11.63,0,0,0,0-23.26Zm0,18.71h-9.49V5.46h9.49a7.08,7.08,0,0,1,0,14.16Z"/><path class="cls-1" d="M161.16,40.12h4.78l-8.52-16.7a11.63,11.63,0,0,0-4-22.51H139.11V3.86h0V40.12h4.77V24.17H153ZM143.88,5.46h9.5a7.08,7.08,0,0,1,0,14.16h-9.5Z"/></g></g></svg>