<?xml version="1.0" encoding="utf-8"?>
<!-- Generator: Adobe Illustrator 19.0.0, SVG Export Plug-In . SVG Version: 6.00 Build 0)  -->
<svg version="1.1" id="图层_1" xmlns="http://www.w3.org/2000/svg" xmlns:xlink="http://www.w3.org/1999/xlink" x="0px" y="0px"
	 viewBox="0 0 1829.3 675.7" style="enable-background:new 0 0 1829.3 675.7;" xml:space="preserve">
<style type="text/css">
	.st0{fill:#E5ECF2;}
	.st1{fill-rule:evenodd;clip-rule:evenodd;fill:#CCDAE7;}
</style>
<rect class="st0" width="1829.3" height="675.7"/>
<g>
	<path class="st1" d="M932,367.1l114.2-95.7c0.7-0.6,1.8-0.4,2.2,0.5c8.9,19.3,13.9,40.9,13.9,63.6c0,81-63.3,147.1-142.4,149.9
		c-0.4,0.1-0.8,0.1-1.3,0.1H775.2c-4.6,0-8.3-3.8-8.3-8.3v-60.4c0-1,0.5-2,1.3-2.6l85.8-61.7c1.8-1.3,4-1.4,6-0.4l35.6,18.8
		C907.4,377.2,921.8,375.7,932,367.1z"/>
	<path class="st1" d="M872.7,332.7c-11-5.8-24.4-4.9-34.5,2.4l-69.9,50.3c-0.6,0.4-1.3,0-1.3-0.7V198.3c0-4.5,3.7-8.2,8.2-8.2h143.6
		c0.4,0,0.9,0,1.3,0.1c45.4,1.6,85.6,24.1,111.6,58.2c0.8,1.1,1.4,1.9,2,2.7l-119,99.7c-1.8,1.5-4.2,1.8-6.3,0.7L872.7,332.7z"/>
</g>
</svg>
