<?xml version="1.0" encoding="utf-8"?>
<!-- Generator: Adobe Illustrator 19.0.0, SVG Export Plug-In . SVG Version: 6.00 Build 0)  -->
<svg version="1.1" id="图层_1" xmlns="http://www.w3.org/2000/svg" xmlns:xlink="http://www.w3.org/1999/xlink" x="0px" y="0px"
	 viewBox="0 0 155.4 28" style="enable-background:new 0 0 155.4 28;" xml:space="preserve">
<style type="text/css">
	.st0{fill:#DAE9F1;}
	.st1{fill-rule:evenodd;clip-rule:evenodd;fill:#DAE9F1;}
</style>
<g id="XMLID_199_">
	<g id="XMLID_222_">
		<g id="XMLID_106_">
			<path id="XMLID_107_" class="st0" d="M65.2,5.4v-3h-12V0.9h-3.1v1.6H38.3v3h11L37.6,27h3.2l11-20l10.9,20h3.5l-12-21.6H65.2z
				 M75,0.9h-2.8v14.2L68.3,27l3,0l2.3-7.3l2.5,7.3h3L75,15.1V0.9z M70.9,2.4h-2.8v11.3h2.8V2.4z M83.4,19.4h8.7v-12H80.6V27h16.1
				l1.3-2.8H83.4V19.4z M83.4,10.2h5.9v6.3h-5.9V10.2z M94.7,19.4h2.8V2.4H83.4V0.9h-2.8v4.4h14.1V19.4z M126.2,2.4h-19.6v2.8h19.6
				V2.4z M100.4,5.3h4.2V2.4h-4.2V5.3z M100.4,10.2h1.4V27h2.8V7.4h-4.2V10.2z M106.2,19.4h8.7V27h2.8v-7.6h8.7v-2.8h-20.3V19.4z
				 M150.6,21.5l3.9-7.2v-2.5l-4.7,0l3.9-6.5V2.4h-15.2v2.8h1.7v11.6L139.6,27h3l0.4-10V5.3h7.5l-3.8,6.5v2.8h4.9l-2.8,4.7l-1.8-2
				l-1.8,1.8l2.3,2.5l-2.7,5.4h3l1.8-3.1L152,27l3.3,0L150.6,21.5z M137.2,10.9h-4.4l3.8-8.5h-2.8l-5.1,11.3l4.4,0l-4,8.3l8.5,0
				l0-2.8h-4.1L137.2,10.9z M78.9,2.4h-2.8v11.3h2.8V2.4z M129,27h8.6v-2.8H129V27z"/>
		</g>
	</g>
	<path id="XMLID_216_" class="st1" d="M125.7,7.4h-5.9c-0.2,0-0.3,0.2-0.1,0.4l1.2,0.8c0.1,0.1,0.1,0.2,0,0.3l-2.1,2.3
		c-0.1,0.1-0.1,0.1-0.2,0l-5.1-3.6c-0.1-0.1-0.2-0.1-0.3,0l-6.4,6.4c-0.1,0.1,0,0.3,0.1,0.3h3.3c0.1,0,0.1,0,0.2-0.1l3.1-3.1
		c0.1-0.1,0.2-0.1,0.2,0l5.1,3.5c0.1,0,0.1,0,0.2,0l6.9-7C126,7.6,125.9,7.4,125.7,7.4z"/>
</g>
<g id="XMLID_113_">
	<path id="XMLID_120_" class="st0" d="M9.9,13.3l3.3,1.8c0.2,0.1,0.4,0.1,0.6-0.1l11.1-9.3c0-0.1-0.1-0.1-0.2-0.2
		C22.3,2.3,18.6,0.2,14.3,0c0,0-0.1,0-0.1,0H0.8C0.3,0,0,0.3,0,0.8v17.4c0,0.1,0.1,0.1,0.1,0.1l6.5-4.7C7.6,12.8,8.9,12.8,9.9,13.3z
		"/>
</g>
<path id="XMLID_102_" class="st0" d="M15.4,17c-1,0.8-2.3,0.9-3.4,0.4l-3.3-1.8c-0.2-0.1-0.4-0.1-0.6,0l-8,5.8C0,21.4,0,21.5,0,21.6
	v5.6C0,27.6,0.4,28,0.8,28h13.4c0,0,0.1,0,0.1,0c7.4-0.3,13.3-6.4,13.3-14c0-2.1-0.5-4.1-1.3-5.9c0-0.1-0.1-0.1-0.2,0L15.4,17z"/>
</svg>
